<svg width="17" height="16" viewBox="0 0 17 16" fill="none" xmlns="http://www.w3.org/2000/svg">
<path d="M6.57975 15.9266C6.49277 15.9266 6.40537 15.8876 6.33887 15.809L0.919075 9.40672C0.786089 9.24963 0.786089 8.99522 0.919075 8.83812L2.98286 6.40022C3.11585 6.24312 3.33122 6.24312 3.46421 6.40022L6.51201 10.0005C6.54923 10.0445 6.60986 10.0445 6.6475 10.0005L14.2331 1.03978C14.2971 0.964201 14.3837 0.922211 14.474 0.922211C14.5643 0.922211 14.6509 0.964695 14.7149 1.03978L16.7787 3.47769C16.9117 3.63478 16.9117 3.8892 16.7787 4.04629L6.82063 15.809C6.75414 15.8876 6.66674 15.9266 6.57975 15.9266Z" fill="#001489"/>
</svg>
