<svg width="19" height="15" viewBox="0 0 19 15" fill="none" xmlns="http://www.w3.org/2000/svg">
<path d="M6.81533 15C6.71242 15 6.60901 14.961 6.53034 14.8825L0.118005 8.48204C-0.0393349 8.32499 -0.0393349 8.07066 0.118005 7.91361L2.55974 5.47641C2.71708 5.31936 2.97189 5.31936 3.12923 5.47641L6.73518 9.07566C6.77921 9.11961 6.85095 9.11961 6.89548 9.07566L15.8703 0.117538C15.946 0.0419779 16.0484 0 16.1553 0C16.2621 0 16.3646 0.0424718 16.4403 0.117538L18.882 2.55474C19.0393 2.71178 19.0393 2.96612 18.882 3.12317L7.10032 14.8825C7.02165 14.961 6.91824 15 6.81533 15Z" fill="white"/>
</svg>
