<svg width="29" height="30" viewBox="0 0 29 30" fill="none" xmlns="http://www.w3.org/2000/svg">
<path d="M9.19947 25.4812C10.5006 24.5764 11.5753 23.5333 12.1524 22.5416C12.4359 22.0532 12.593 21.5927 12.5818 21.1848C12.5723 20.8233 12.4185 20.4855 12.0875 20.1978C11.728 19.886 11.1761 19.6273 10.3977 19.4424C10.0919 19.8793 9.77484 20.3193 9.46115 20.7532L9.44214 20.7774L9.43599 20.7859L9.42481 20.8028L9.4058 20.827L9.39462 20.8439L9.38846 20.8524L9.37113 20.8765L9.35212 20.9025L9.33478 20.9267L9.31745 20.9527L9.3113 20.9611L9.29844 20.9762L9.28111 21.0022L9.26825 21.018L9.2621 21.0264L9.24476 21.0506L9.22743 21.0766L9.20394 21.1074V21.1092L9.18046 21.14L9.17431 21.1521H9.17263L9.16648 21.1624L9.15082 21.1829L9.143 21.195L9.12734 21.2156L9.12566 21.2192L9.11112 21.2379L9.09547 21.2585V21.2603L9.07981 21.2808L9.06415 21.3032L9.05633 21.3135L9.0485 21.3256L9.04067 21.3358L9.03284 21.3479L9.02501 21.3582L9.01719 21.3703H9.01551L9.00768 21.3806V21.3824L8.99985 21.3927L8.99202 21.4047L8.9842 21.415L8.97637 21.4271H8.97469L8.96686 21.4392L8.95903 21.4495L8.94338 21.4736H8.9417L8.93387 21.4857L8.92604 21.496V21.4978L8.91654 21.5081V21.5099L8.90871 21.5202V21.522L8.90088 21.5323L8.8992 21.5341L8.89138 21.5444V21.5462L8.88355 21.5564L8.88187 21.5583L8.87404 21.5685V21.5703L8.86454 21.5824L8.85671 21.5945L8.8377 21.6187V21.6205L8.82987 21.6326H8.82819L8.82036 21.6447L8.81086 21.6568V21.6586L8.79185 21.6828V21.6846L8.78402 21.6967H8.78234L8.77451 21.7106H8.77284L8.76501 21.7226L8.76333 21.7245L8.7555 21.7365H8.75382L8.74432 21.7504L8.72531 21.7776L8.7063 21.8054L8.69511 21.8193L8.68561 21.8332C8.56651 21.9976 8.42113 22.1264 8.25282 22.2152C8.0834 22.304 7.89944 22.3506 7.70765 22.3506C7.51586 22.3506 7.3319 22.304 7.16247 22.2152C6.99473 22.1264 6.84879 21.9976 6.72969 21.8332C6.51441 21.5353 6.35114 21.3093 6.18451 21.0814C5.29378 19.8564 4.33819 18.5425 3.7069 17.4033C3.4044 17.8741 3.12035 18.3612 2.85084 18.861C2.44992 19.6062 2.08536 20.3683 1.7493 21.1461C1.7001 21.2591 1.61622 21.3449 1.51781 21.3927C2.73677 24.1866 4.72903 26.508 7.19714 28.0346C7.43198 27.5088 7.69143 27.0169 8.00568 26.5902C8.3339 26.1339 8.72251 25.7537 9.19947 25.4812Z" fill="#001489"/>
<path d="M2.01434 12.3997C2.42812 12.4444 2.84636 12.4511 3.273 12.4136C3.3222 12.2643 3.37756 12.1187 3.43795 11.9749C3.49163 11.8479 3.54866 11.7247 3.61073 11.6032C3.77065 11.2877 3.96243 10.9861 4.18777 10.7039C4.21014 10.6749 4.23362 10.6459 4.25767 10.6163L4.26214 10.6114L4.26661 10.6048L4.2778 10.5927L4.28227 10.586L4.29793 10.5691V10.5673L4.30911 10.5552L4.31862 10.5431L4.32309 10.5383C4.60043 10.218 4.90629 9.95085 5.23451 9.73327C5.5577 9.51933 5.90494 9.3495 6.26615 9.22803C6.59885 8.77899 7.00479 8.32148 7.52313 7.88151C8.08564 7.40164 8.78625 6.94112 9.68034 6.5229C11.416 5.71244 12.6713 4.84397 13.7538 3.81293C14.7983 2.81936 15.6873 1.66804 16.6921 0.268337C15.845 0.0906545 14.9705 0 14.0747 0C7.34196 0 1.7275 5.18363 0.46269 12.0607C0.480024 12.0625 0.49624 12.0673 0.511896 12.0728C1.00619 12.2299 1.50719 12.3447 2.01434 12.3997Z" fill="#001489"/>
<path d="M21.9504 22.8159C21.6775 21.6114 21.4606 20.3834 21.318 19.1239C21.1816 17.9351 21.1201 17.5429 21.0927 17.5459C21.0071 17.558 20.7264 18.007 20.4413 18.4627C20.0767 19.0471 19.7076 19.6394 19.2637 19.8195C18.5312 20.1144 16.6977 19.1873 15.4072 17.9248C14.9951 17.5223 14.6322 17.0854 14.3661 16.6454C14.0775 16.1655 13.9003 15.6724 13.8908 15.1925C13.8779 14.5174 14.1776 13.9161 14.9224 13.4773C15.0588 13.3969 15.1998 13.3474 15.3586 13.2906C15.7863 13.1383 16.4047 12.9171 16.3952 11.9356C16.384 10.7498 17.0942 9.98106 18.0973 9.43774C18.8438 9.03524 19.7378 8.76448 20.5939 8.53663C20.3199 7.72135 20.2182 6.8426 20.2864 5.98259C20.3831 4.79019 20.8109 3.62679 21.5685 2.71238C21.6289 2.64046 21.6904 2.57036 21.7525 2.50327C20.5128 1.61244 19.134 0.93072 17.6567 0.504039C17.641 0.571123 17.6136 0.633977 17.5728 0.692601C16.4729 2.2295 15.5168 3.48476 14.3744 4.57261C13.2254 5.66712 11.8924 6.58877 10.0505 7.44878C9.24532 7.8259 8.61292 8.24352 8.10409 8.67685C7.98051 8.7814 7.86477 8.88596 7.75685 8.99232C8.85839 9.00441 9.95656 9.42384 10.8065 10.2464C10.9256 10.3612 11.0396 10.4845 11.1487 10.6163C11.9002 11.5228 12.3324 12.691 12.4291 13.8937C12.5276 15.0946 12.291 16.3366 11.7034 17.3972C11.497 17.7689 11.2566 18.1593 10.9949 18.5606C11.724 18.7746 12.2754 19.064 12.6735 19.4085C13.2377 19.9005 13.4994 20.4964 13.5167 21.1576C13.5324 21.7758 13.3249 22.4267 12.9447 23.0812C12.2899 24.2036 11.1012 25.3633 9.67811 26.3496C9.66692 26.3563 9.65574 26.3635 9.64456 26.3702C9.28949 26.5721 8.99146 26.8634 8.73481 27.2145C8.46083 27.5862 8.23102 28.0213 8.02469 28.4891L8.01854 28.5012C9.84921 29.4603 11.9035 30 14.0747 30C17.4727 30 20.5844 28.6789 22.9966 26.488C22.9586 26.4403 22.9267 26.3835 22.906 26.3182C22.5482 25.1814 22.2233 24.0168 21.9504 22.8159Z" fill="#001489"/>
<path d="M3.25063 16.3432C3.00013 15.5569 2.90843 14.7138 2.97497 13.8883C2.98783 13.7378 3.00516 13.5903 3.02753 13.441C2.65346 13.458 2.28553 13.4447 1.92264 13.4048C1.37243 13.3468 0.836764 13.2265 0.310601 13.0621C0.236233 13.6967 0.196533 14.344 0.196533 15.0003C0.196533 16.8623 0.510219 18.644 1.08391 20.2891C1.38194 19.6243 1.6973 18.9752 2.03671 18.3479C2.40575 17.6607 2.80722 16.9929 3.25063 16.3432Z" fill="#001489"/>
<path d="M26.8754 12.7061L26.8581 12.7285L26.8425 12.7527L26.8329 12.7648L26.8251 12.7768L26.8078 12.7992L26.7921 12.8234H26.7905L26.7748 12.8457L26.7575 12.8699L26.7496 12.882L26.7418 12.8923L26.7071 12.9406L26.6915 12.963L26.6741 12.9872L26.6663 12.9993L26.6568 13.0095L26.6412 13.0337L26.6238 13.0561L26.6082 13.0802L26.5908 13.1026L26.583 13.1147L26.5752 13.125L26.5578 13.1491L26.5405 13.1715L26.5327 13.1836L26.5265 13.1939L26.5187 13.2041L26.503 13.2265L26.4796 13.2573L26.4717 13.2694L26.4482 13.3002L26.4404 13.3123L26.4326 13.3226L26.4264 13.3329H26.4248L26.4186 13.345H26.4169L26.4108 13.3552H26.4091L26.403 13.3655H26.4013L26.3951 13.3776H26.3935L26.3873 13.3879H26.3856L26.3728 13.4066L26.3711 13.4102H26.3649L26.3571 13.4205V13.4223L26.3415 13.4429L26.3336 13.4549L26.3258 13.4652V13.467L26.3101 13.4876V13.4894L26.3023 13.4997H26.3006L26.2928 13.5118L26.285 13.522V13.5238L26.2771 13.5341L26.2693 13.5462H26.2676L26.2598 13.5583L26.252 13.5686V13.5704L26.2442 13.5807L26.2425 13.5825L26.2347 13.5927L26.2268 13.6048L26.2173 13.6169L26.2095 13.629L26.2 13.6411L26.1922 13.6532L26.1827 13.6653L26.1748 13.6774V13.6792L26.1653 13.6894V13.6913L26.1575 13.7033H26.1558L26.148 13.7154L26.1385 13.7275V13.7293L26.129 13.7414L26.1211 13.7535H26.1195L26.1116 13.7674L26.1021 13.7795L26.0926 13.7934L26.0831 13.8055V13.8073L26.0736 13.8194L26.0546 13.8466L26.0451 13.8587V13.8605L26.0356 13.8726H26.0339L26.0054 13.9143L25.9942 13.9294C25.8768 14.0938 25.7297 14.2207 25.5614 14.3095C25.392 14.4002 25.2097 14.4467 25.0163 14.4467H25.0084L25.0006 14.4449H24.9548L24.9514 14.4431H24.9274L24.9195 14.4413H24.9083C24.9005 14.4395 24.8927 14.4395 24.8832 14.4376H24.8787L24.8709 14.4358H24.863L24.858 14.434H24.8547L24.8485 14.4322H24.839L24.8155 14.4268H24.8077L24.806 14.4249H24.7999L24.7965 14.4231H24.792L24.7887 14.4213H24.7842L24.7797 14.4195L24.7641 14.4159H24.7607L24.7546 14.4141L24.7389 14.4104H24.7372L24.7311 14.4086L24.7294 14.4068L24.7233 14.405H24.7216L24.7154 14.4032H24.7121L24.7076 14.4014L24.7042 14.3996H24.6998L24.6964 14.3978L24.6869 14.3941H24.6852L24.6791 14.3923H24.6774L24.6713 14.3887H24.6696L24.6618 14.3869L24.6539 14.3832L24.6478 14.3814H24.6461L24.6399 14.3778H24.6383L24.6321 14.376L24.6288 14.3742L24.6237 14.3724H24.6204L24.6159 14.3706L24.6098 14.3669L24.6053 14.3651L24.6019 14.3633L24.5975 14.3615H24.5941L24.5879 14.3579H24.5863L24.5801 14.3542L24.5645 14.347L24.5583 14.3452L24.5566 14.3434L24.5505 14.3415L24.5488 14.3397L24.5427 14.3379L24.541 14.3361L24.5359 14.3343L24.5315 14.3325L24.5281 14.3307L24.5236 14.3289L24.5203 14.327C24.5057 14.3204 24.4901 14.3131 24.4761 14.3065C24.3084 14.2177 24.1624 14.0889 24.0417 13.9227C23.8264 13.623 23.6631 13.3987 23.4982 13.1709C22.6074 11.9458 21.6502 10.6301 21.0205 9.49274L21.0077 9.47219C20.1404 9.70003 19.2212 9.96233 18.5206 10.3425C17.8233 10.7196 17.3284 11.2176 17.3352 11.9289C17.3508 13.6508 16.3494 14.0067 15.6566 14.2539C15.533 14.2968 15.4234 14.3361 15.3742 14.3651C14.9828 14.5966 14.8257 14.8758 14.8307 15.1738C14.8352 15.4493 14.9576 15.7648 15.1556 16.0936C15.3776 16.4604 15.6868 16.8303 16.0385 17.1748C17.1115 18.2252 18.4954 19.0526 18.9422 18.8725C19.1004 18.8072 19.3878 18.3497 19.6696 17.8958C20.0739 17.2467 20.4731 16.6073 20.9836 16.539C21.5702 16.4617 22.0315 17.0563 22.2535 19.0024C22.3944 20.2359 22.6035 21.4247 22.8652 22.5778C23.1107 23.6602 23.4042 24.7263 23.7308 25.7779C26.3381 23.0504 27.958 19.2302 27.958 15.0003C27.958 13.8593 27.8389 12.7472 27.6158 11.6787C27.3714 12.0196 27.1226 12.3635 26.8754 12.7061Z" fill="#001489"/>
<path d="M4.95326 11.2895C4.33819 12.0329 3.98983 12.989 3.91043 13.9741C3.82824 14.9834 4.02786 16.0144 4.50649 16.8781C5.09752 17.949 6.04081 19.2441 6.917 20.4498C7.12445 20.7327 7.32742 21.0119 7.46553 21.2053C7.49908 21.25 7.53375 21.2827 7.56842 21.3014C7.60476 21.3201 7.6495 21.3304 7.70317 21.3304C7.75685 21.3304 7.80159 21.3201 7.83793 21.3014C7.8726 21.2827 7.90782 21.25 7.94081 21.2053C8.07893 21.0119 8.28302 20.7327 8.48934 20.448C9.3661 19.2435 10.3072 17.9484 10.8999 16.8781C11.3818 16.0078 11.5753 14.9798 11.4942 13.9813C11.4132 12.986 11.0615 12.0268 10.4514 11.2901C10.3659 11.1874 10.277 11.0895 10.1819 10.9988C9.49694 10.3358 8.60174 10.0034 7.70429 10.0016C6.80741 10.0016 5.91165 10.3322 5.22389 10.9988C5.13051 11.0889 5.04048 11.1868 4.95326 11.2895ZM7.70317 11.3802C8.38814 11.3802 9.00936 11.6799 9.4578 12.1664C9.90792 12.6511 10.1853 13.3226 10.1853 14.0629C10.1853 14.8045 9.90792 15.4747 9.4578 15.9612C9.00936 16.4459 8.38814 16.7457 7.70317 16.7457C7.01709 16.7457 6.39699 16.4459 5.94687 15.9612C5.49843 15.4747 5.21941 14.8051 5.21941 14.0629C5.21941 13.3226 5.49843 12.6511 5.94687 12.1664C6.39699 11.6799 7.01653 11.3802 7.70317 11.3802Z" fill="#001489"/>
<path d="M7.70317 15.7316C8.12981 15.7316 8.51451 15.5448 8.79352 15.2433C9.07422 14.9417 9.247 14.5235 9.247 14.0629C9.247 13.6018 9.07422 13.186 8.79352 12.8826C8.51451 12.581 8.12925 12.3943 7.70317 12.3943C7.2771 12.3943 6.89016 12.581 6.61115 12.8826C6.33213 13.186 6.15935 13.6024 6.15935 14.0629C6.15935 14.5241 6.33213 14.9417 6.61115 15.2433C6.89016 15.5448 7.27654 15.7316 7.70317 15.7316Z" fill="#001489"/>
<path d="M25.0146 4.48982C24.5879 4.48982 24.2032 4.67656 23.9226 4.97814C23.6435 5.27972 23.4708 5.69794 23.4708 6.15846C23.4708 6.61959 23.6435 7.0354 23.9226 7.33879C24.2032 7.64036 24.5885 7.82711 25.0146 7.82711C25.4412 7.82711 25.8276 7.64036 26.1066 7.33879C26.3856 7.0354 26.5584 6.61899 26.5584 6.15846C26.5584 5.69733 26.3856 5.27972 26.1066 4.97814C25.8276 4.67656 25.4407 4.48982 25.0146 4.48982Z" fill="#001489"/>
<path d="M28.8073 6.07446C28.7262 5.07907 28.3729 4.12116 27.7645 3.38504C27.6789 3.2823 27.5884 3.18439 27.495 3.09374C26.8089 2.43075 25.9148 2.09654 25.0174 2.09654C24.1199 2.09654 23.2231 2.42712 22.5353 3.09374C22.4419 3.18439 22.3513 3.2823 22.2658 3.38504C21.649 4.12841 21.3024 5.08451 21.2213 6.06962C21.1402 7.0771 21.3387 8.10995 21.8173 8.97359C22.41 10.0427 23.3517 11.3379 24.2295 12.5436C24.4359 12.8282 24.6399 13.1086 24.7781 13.299C24.8083 13.3419 24.8429 13.3746 24.8809 13.3951H24.8793L24.8809 13.3969C24.9156 13.4157 24.962 13.4241 25.014 13.4241C25.0677 13.4241 25.1141 13.4157 25.1488 13.3969C25.1851 13.3782 25.2203 13.3456 25.2517 13.299C25.3909 13.1074 25.5939 12.8276 25.8002 12.5436C26.6781 11.3373 27.6197 10.0421 28.2124 8.97359C28.6949 8.10331 28.8884 7.07347 28.8073 6.07446ZM26.7709 8.05496C26.3208 8.54147 25.7012 8.84123 25.0146 8.84123C24.3296 8.84123 23.7084 8.54147 23.26 8.05496C22.8098 7.57026 22.5325 6.89881 22.5325 6.15846C22.5325 5.41691 22.8098 4.74667 23.26 4.26016C23.7084 3.77546 24.3296 3.47569 25.0146 3.47569C25.7007 3.47569 26.3208 3.77546 26.7709 4.26016C27.2193 4.74667 27.4967 5.41631 27.4967 6.15846C27.4967 6.89881 27.2193 7.57026 26.7709 8.05496Z" fill="#001489"/>
</svg>
