<svg xmlns="http://www.w3.org/2000/svg" xml:space="preserve" width="512" height="512" viewBox="0 0 60 60"><path fill="#001489" d="M21.918 35.661a6.145 6.145 0 0 0-7.124 9.827L16 46.692V53a7.01 7.01 0 0 0 7 7h16a7.01 7.01 0 0 0 7-7v-7a11.98 11.98 0 0 0-11-11.951v-1.895a10.01 10.01 0 0 0 5.961-8.271A4.01 4.01 0 0 0 44 20v-5.042A11.42 11.42 0 0 0 38.922 6c-.48-3.406-3.837-6-7.922-6-4.054 0-7.41 2.577-7.916 5.96a11.46 11.46 0 0 0-5.084 9V20a4.01 4.01 0 0 0 3.039 3.883A10.01 10.01 0 0 0 27 32.154v1.891a11.9 11.9 0 0 0-5.082 1.616m-1.342 2.551a3 3 0 0 1 .8-.555 4 4 0 0 1 .692.55l3.5 3.506a3.1 3.1 0 0 1-.6.9 3.112 3.112 0 1 1-4.4-4.4Zm-4.369-.005a4.1 4.1 0 0 1 2.778-1.192 5.1 5.1 0 0 0 7.407 7.011 5 5 0 0 0 .659-.834l2.277 2.279a15 15 0 0 1-8.342 3.37l-4.775-4.764a4.186 4.186 0 0 1-.004-5.87M31 58a2 2 0 0 1 0-4h1.97a15 15 0 0 1-.658 4Zm-3.79-8.8c.252 1.5.451 3.235.574 4.439a4 4 0 0 0-.21.324 4.17 4.17 0 0 1-2.637-1.185l-2.159-2.153A17.4 17.4 0 0 0 27.21 49.2m4.176 2.8H31a4 4 0 0 0-1.355.252c-.146-1.29-.346-2.819-.588-4.09a15 15 0 0 0 1.685-1.276l.051.052A4.126 4.126 0 0 1 31.386 52M18 53v-4.313l5.52 5.507a6.04 6.04 0 0 0 3.487 1.74c0 .023-.007.043-.007.066a3.96 3.96 0 0 0 .556 2H23a5.006 5.006 0 0 1-5-5m26-7v7a5.006 5.006 0 0 1-5 5h-4.6a18.4 18.4 0 0 0 .572-4H37a3 3 0 0 0 3-3v-4a1 1 0 0 0-2 0v4a1 1 0 0 1-1 1h-3.406a6.13 6.13 0 0 0-1.386-6.477l-8.529-8.538a9.9 9.9 0 0 1 3.482-.924 3.977 3.977 0 0 0 7.684-.02A9.98 9.98 0 0 1 44 46M31 2a6.26 6.26 0 0 1 5.437 2.832A17 17 0 0 0 30.928 4h-.012a16.7 16.7 0 0 0-5.349.8A6.2 6.2 0 0 1 31 2m-.078 4C41.817 6 42 14.6 42 14.958v.226a2.93 2.93 0 0 0-2.806.421C38.165 13.607 35.887 11 31 11s-7.165 2.608-8.194 4.606A2.93 2.93 0 0 0 20 15.184v-.223C20 14.6 20.18 6 30.922 6M23 23a1 1 0 0 0-1-1 2 2 0 0 1-2-2v-2a1 1 0 0 1 2 0 1 1 0 0 0 1.988.151C24.021 17.941 24.874 13 31 13s6.979 4.942 7.011 5.147A1 1 0 0 0 40 18a1 1 0 0 1 2 0v2a2 2 0 0 1-2 2 1 1 0 0 0-1 1 8 8 0 0 1-16 0m8 10a10 10 0 0 0 2-.2V35a2 2 0 0 1-4 0v-2.2a10 10 0 0 0 2 .2" data-original="#000000"/></svg>