<svg xmlns="http://www.w3.org/2000/svg" xml:space="preserve" width="512" height="512" viewBox="0 0 60 60"><g fill="#001489"><path d="M19.121 34.221a3 3 0 0 0-4.242 0 2.97 2.97 0 0 0-.851 1.842A10 10 0 0 0 13 36a9.987 9.987 0 0 0-5.974 18H3a3 3 0 0 0 0 6h54a3 3 0 0 0 0-6h-3.8l2.652-14.139A2.992 2.992 0 0 0 55 34a4.01 4.01 0 0 0-3-3.874V30a5 5 0 0 0-9.075-2.892A4.007 4.007 0 0 0 38.1 30.1 4.01 4.01 0 0 0 35 34a2.992 2.992 0 0 0-.856 5.861L36.8 54H30a6.006 6.006 0 0 0-6-6h-1.21a9.2 9.2 0 0 0 .147-3.028 2.988 2.988 0 0 0 1.841-5.093l-.707-.707 34.05-34.05A3 3 0 1 0 53.879.879l-34.05 34.05zM39 32a1 1 0 0 0 1-1 2 2 0 0 1 2.914-1.78 1 1 0 0 0 1.366-.475A3 3 0 0 1 50 30a3 3 0 0 1-.1.767A1 1 0 0 0 51.01 32 2 2 0 0 1 53 34H37a2 2 0 0 1 2-2m-4 4h20a1 1 0 0 1 0 2H35a1 1 0 0 1 0-2m1.2 4h17.6l-2.63 14H38.83zM38 56h19a1 1 0 0 1 0 2H3a1 1 0 0 1 0-2zm-19-8a1 1 0 0 0 0 2h5a4 4 0 0 1 4 4H13a8 8 0 1 1 0-16 8.2 8.2 0 0 1 1.651.185q.105.146.228.279l5.656 5.657q.133.123.28.229A8 8 0 0 1 21 46c0 .675-.085 1.347-.255 2zm4.364-5.293a1 1 0 0 1-1.415 0l-5.656-5.657a1 1 0 0 1 1.414-1.414l1.413 1.413.849.849 3.394 3.394a1 1 0 0 1 0 1.414zM55.293 2.293a1 1 0 1 1 1.414 1.414l-34.05 34.05-.393-.392-1.021-1.022z" data-original="#000000"/><path d="M42 42h-2a1 1 0 0 0 0 2h2a1 1 0 0 0 0-2m7 0h-3a1 1 0 0 0 0 2h3a1 1 0 0 0 0-2m7-14a3 3 0 1 0 0-6 3 3 0 0 0 0 6m0-4a1 1 0 1 1 0 2 1 1 0 0 1 0-2m-5-8a3 3 0 1 0 0 6 3 3 0 0 0 0-6m0 4a1 1 0 1 1 0-2 1 1 0 0 1 0 2M26.991 0a1 1 0 0 0-1 .971V1c0 .368-.091 9-8.01 9a1 1 0 0 0 0 2c7.888 0 8.009 8.634 8.01 9a1 1 0 0 0 2 .027V21c0-.368.091-9 8.009-9a1 1 0 0 0 0-2c-7.87 0-8.007-8.6-8.009-9a1 1 0 0 0-1-1m4.451 11a9.5 9.5 0 0 0-4.451 5.036A9.5 9.5 0 0 0 22.54 11a9.5 9.5 0 0 0 4.451-5.036A9.5 9.5 0 0 0 31.442 11M6 30.005v.006A1 1 0 0 0 8 30c0-.245.084-6 5-6a1 1 0 0 0 0-2c-4.916 0-5-5.757-5-6v-.006A1 1 0 0 0 6 16c0 .245-.084 6-5 6a1 1 0 0 0 0 2c4.916 0 5 5.757 5 6zM4.656 23A6.7 6.7 0 0 0 7 20.287 6.7 6.7 0 0 0 9.344 23 6.7 6.7 0 0 0 7 25.713 6.7 6.7 0 0 0 4.656 23m6.137-14.793 1.5 1.5a1 1 0 0 0 1.414-1.414l-1.5-1.5a1 1 0 1 0-1.414 1.414m-3-3a1 1 0 0 0 1.414-1.414l-1.5-1.5a1 1 0 0 0-1.414 1.414zm-1.5 4.5a1 1 0 0 0 1.414 0l1.5-1.5a1 1 0 0 0-1.414-1.414l-1.5 1.5a1 1 0 0 0 0 1.414M11.5 5.5a1 1 0 0 0 .707-.293l1.5-1.5a1 1 0 1 0-1.414-1.414l-1.5 1.5A1 1 0 0 0 11.5 5.5" data-original="#000000"/></g></svg>