<svg xmlns="http://www.w3.org/2000/svg" version="1.1" xmlns:xlink="http://www.w3.org/1999/xlink" width="512" height="512" x="0" y="0" viewBox="0 0 500 500" style="enable-background:new 0 0 512 512" xml:space="preserve" class=""><g><path fill-rule="evenodd" d="M73.557 195.249a6.825 6.825 0 0 1 .229-9.641c38.138-36.424 119.288-36.474 157.514 0 4.45 4.246 1.41 11.75-4.702 11.75a6.79 6.79 0 0 1-4.709-1.88c-32.867-31.4-105.628-31.487-138.68 0a6.827 6.827 0 0 1-9.652-.229zm128.865 20.754c-22.677-25.534-77.144-25.482-99.751 0a6.826 6.826 0 0 0 .575 9.634c2.82 2.501 7.13 2.235 9.628-.573 17.209-19.368 62.159-19.357 79.346 0a6.8 6.8 0 0 0 5.101 2.291c5.829 0 9.029-6.928 5.101-11.352zm154.206 165.353c0 3.788-3.011 6.821-6.96 6.821a6.815 6.815 0 0 1-6.819-6.821c0-3.798 3.006-6.821 6.96-6.821a6.813 6.813 0 0 1 6.819 6.821zm-40.476 0c0 3.789-3.015 6.821-6.966 6.821a6.823 6.823 0 0 1-6.819-6.821c0-3.799 3.015-6.821 6.966-6.821a6.817 6.817 0 0 1 6.819 6.821zm40.476-34.696c0 3.788-3.011 6.821-6.96 6.821a6.815 6.815 0 0 1-6.819-6.821c0-3.788 3.005-6.821 6.96-6.821a6.819 6.819 0 0 1 6.819 6.821zm-40.476 0c0 3.789-3.015 6.821-6.966 6.821a6.823 6.823 0 0 1-6.819-6.821c0-3.788 3.015-6.821 6.966-6.821a6.823 6.823 0 0 1 6.819 6.821zm145.305 65.837V346.66c0-25.646-30.514-45.227-82.002-52.967-6.054 17.532-29.96 23.182-48.65 23.182-18.382 0-43.397-5.537-50.714-22.119-20.077 3.42-37.515 8.639-51.183 15.307 12.718 14.787 20.511 32.795 22.475 52.021 9.505.401 17.509 6.695 20.089 15.935l8.162 29.185c.486 1.782.651 3.558.516 5.294h181.307zm-212.22 0H39.836c-.885 0-1.462-.764-1.232-1.62l8.162-29.185c1.02-3.646 4.122-6.01 7.91-6.01H250.42c3.788 0 6.89 2.364 7.91 6.01l8.156 29.185c.234.849-.345 1.62-1.225 1.62zm-96.685-123.543c44.088 0 80.167 31.577 85.104 73.084H67.436c4.943-41.507 41.022-73.084 85.116-73.084zm-10.525-28.331c0-3.511 2.844-6.367 6.356-6.367h8.332c3.506 0 6.356 2.856 6.356 6.367v15.225a103.569 103.569 0 0 0-21.044 0zm127.187-92.086c35.788-15.537 84.778-15.535 120.561 0a80.283 80.283 0 0 1 2.287 19.119c0 39.279-28.069 71.229-62.565 71.229s-62.564-31.949-62.564-71.229c0-6.502.774-12.925 2.281-19.119zm-5.172-67.52v54.879c39.118-16.872 91.788-16.869 130.911 0v-54.879c0-7.458-6.057-13.514-13.504-13.514H277.558c-7.453 0-13.516 6.056-13.516 13.514zm27.817 160.415c23.305 14.798 51.972 14.81 75.271 0v24.375c0 4.92-3.236 9.022-9.61 12.188-21.794 10.823-65.661 3.79-65.661-12.188zm152.125 38.672c-15.873-9.331-37.638-16.208-63.209-20.019v-29.693c15.316-15.534 24.926-37.907 24.926-62.736 0-4.938-.387-9.833-1.132-14.653 2.474-1.155 4.028-3.492 4.028-6.221v-65.766c0-14.977-12.178-27.156-27.148-27.156H277.558c-14.97 0-27.16 12.179-27.16 27.156v65.766c0 2.659 1.618 5.206 4.04 6.221a94.512 94.512 0 0 0-1.149 14.653c0 24.828 9.622 47.202 24.932 62.736v30.841c-23.531 3.974-43.854 10.367-59.416 18.67a99.699 99.699 0 0 0-42.089-21.718v-17.561c0-11.033-8.971-20.01-20.001-20.01h-8.332c-11.035 0-20.001 8.977-20.001 20.01v17.561c-39.881 9.64-70.475 42.88-74.679 83.9-9.493.401-17.497 6.695-20.083 15.935l-8.156 29.185c-2.658 9.539 4.463 18.935 14.372 18.935h428.441a6.823 6.823 0 0 0 6.819-6.821V346.66c0-18.498-10.76-34.598-31.112-46.556z" clip-rule="evenodd" fill="#001489" opacity="1" data-original="#000000" class=""></path></g></svg>