<svg xmlns="http://www.w3.org/2000/svg" version="1.1" xmlns:xlink="http://www.w3.org/1999/xlink" width="512" height="512" x="0" y="0" viewBox="0 0 60 60" style="enable-background:new 0 0 512 512" xml:space="preserve" class=""><g><path d="M21.918 35.661a6.145 6.145 0 0 0-7.124 9.827L16 46.692V53a7.009 7.009 0 0 0 7 7h16a7.009 7.009 0 0 0 7-7v-7a11.979 11.979 0 0 0-11-11.951v-1.895a10.013 10.013 0 0 0 5.961-8.271A4.007 4.007 0 0 0 44 20v-5.042A11.423 11.423 0 0 0 38.922 6c-.48-3.406-3.837-6-7.922-6-4.054 0-7.41 2.577-7.916 5.96a11.461 11.461 0 0 0-5.084 9V20a4.007 4.007 0 0 0 3.039 3.883A10.013 10.013 0 0 0 27 32.154v1.891a11.871 11.871 0 0 0-5.082 1.616Zm-1.342 2.551a2.953 2.953 0 0 1 .8-.555 4.088 4.088 0 0 1 .692.55l3.5 3.506a3.065 3.065 0 0 1-.6.9 3.112 3.112 0 1 1-4.4-4.4Zm-4.369-.005a4.107 4.107 0 0 1 2.778-1.192 5.1 5.1 0 0 0 7.407 7.011 5.018 5.018 0 0 0 .659-.834l2.277 2.279a15.016 15.016 0 0 1-8.342 3.37l-4.775-4.764a4.186 4.186 0 0 1-.004-5.87ZM31 58a2 2 0 0 1 0-4h1.97a15.127 15.127 0 0 1-.658 4Zm-3.79-8.8c.252 1.5.451 3.235.574 4.439a3.46 3.46 0 0 0-.21.324 4.168 4.168 0 0 1-2.637-1.185l-2.159-2.153A17.373 17.373 0 0 0 27.21 49.2Zm4.176 2.8H31a3.96 3.96 0 0 0-1.355.252c-.146-1.29-.346-2.819-.588-4.09a15.092 15.092 0 0 0 1.685-1.276l.051.052A4.126 4.126 0 0 1 31.386 52ZM18 53v-4.313l5.52 5.507a6.042 6.042 0 0 0 3.487 1.74c0 .023-.007.043-.007.066a3.959 3.959 0 0 0 .556 2H23a5.006 5.006 0 0 1-5-5Zm26-7v7a5.006 5.006 0 0 1-5 5h-4.6a18.387 18.387 0 0 0 .572-4H37a3 3 0 0 0 3-3v-4a1 1 0 0 0-2 0v4a1 1 0 0 1-1 1h-3.406a6.127 6.127 0 0 0-1.386-6.477l-8.529-8.538a9.9 9.9 0 0 1 3.482-.924 3.977 3.977 0 0 0 7.684-.02A9.982 9.982 0 0 1 44 46ZM31 2a6.255 6.255 0 0 1 5.437 2.832A17 17 0 0 0 30.928 4h-.012a16.736 16.736 0 0 0-5.349.8A6.2 6.2 0 0 1 31 2Zm-.078 4C41.817 6 42 14.6 42 14.958v.226a2.931 2.931 0 0 0-2.806.421C38.165 13.607 35.887 11 31 11s-7.165 2.608-8.194 4.606A2.931 2.931 0 0 0 20 15.184v-.223C20 14.6 20.18 6 30.922 6ZM23 23a1 1 0 0 0-1-1 2 2 0 0 1-2-2v-2a1 1 0 0 1 2 0 1 1 0 0 0 1.988.151C24.021 17.941 24.874 13 31 13s6.979 4.942 7.011 5.147A1 1 0 0 0 40 18a1 1 0 0 1 2 0v2a2 2 0 0 1-2 2 1 1 0 0 0-1 1 8 8 0 0 1-16 0Zm8 10a9.991 9.991 0 0 0 2-.2V35a2 2 0 0 1-4 0v-2.2a9.991 9.991 0 0 0 2 .2Z" fill="#001489" opacity="1" data-original="#000000"></path></g></svg>