<svg width="29" height="30" viewBox="0 0 29 30" fill="none" xmlns="http://www.w3.org/2000/svg">
<path d="M12.8422 11.7857C12.8422 13.5579 11.5082 15 9.86902 15C8.22981 15 6.89584 13.5579 6.89584 11.7857C6.89584 10.0136 8.22981 8.57143 9.86902 8.57143C11.5082 8.57143 12.8422 10.0136 12.8422 11.7857ZM28.6992 3.21429V20.3571C28.6992 22.1293 27.3652 23.5714 25.726 23.5714H19.3644L16.5726 28.8664C16.2604 29.5457 15.5805 30 14.8243 30C14.0682 30 13.3893 29.5457 13.0513 28.815L10.2843 23.5714H3.92265C2.28343 23.5714 0.949463 22.1293 0.949463 20.3571V3.21429C0.949463 1.44214 2.28343 0 3.92265 0H25.726C27.3652 0 28.6992 1.44214 28.6992 3.21429ZM24.735 11.7857C24.735 11.1943 24.292 10.7143 23.7439 10.7143H14.7242C14.2634 8.2725 12.2624 6.42857 9.86902 6.42857C7.13667 6.42857 4.91371 8.83179 4.91371 11.7857C4.91371 14.7396 7.13667 17.1429 9.86902 17.1429C12.2614 17.1429 14.2634 15.2989 14.7242 12.8571H18.7886V13.9286C18.7886 14.52 19.2316 15 19.7796 15C20.3277 15 20.7707 14.52 20.7707 13.9286V12.8571H22.7528V15C22.7528 15.5914 23.1958 16.0714 23.7439 16.0714C24.292 16.0714 24.735 15.5914 24.735 15V11.7857Z" fill="#001489"/>
</svg>
