<svg xmlns="http://www.w3.org/2000/svg" width="203" height="83" fill="none"><path fill="#001489" d="M12.036.005c3.038 0 5.535 1.01 7.628 3.032 2.025 2.02 3.105 4.513 3.105 7.477s-1.08 5.389-3.172 7.41c-2.026 2.02-4.59 3.03-7.628 3.03H6.5v10.24H.358V.005zm0 15.224c1.283 0 2.43-.471 3.24-1.347.878-.876 1.283-2.021 1.283-3.368 0-1.348-.405-2.493-1.283-3.368-.877-.876-1.957-1.348-3.24-1.348H6.501v9.431zM32.895 25.333h11.948l-2.16 5.86H26.752V.006h6.143zM69.752 31.26l-1.958-5.59H54.97l-1.89 5.59h-6.684L57.332.006h7.628l11.07 31.256zM56.926 19.878h8.843L61.246 7.146zM97.496.005v5.86h-8.438v25.329h-6.143V5.934h-8.438V.072h23.019zM100.939.005h6.143v31.256h-6.143zM131.045.005h6.143v31.256h-4.725L119.03 12.13v19.13h-6.143V.005h4.657l13.434 18.996V.005zM154.672 31.867c-3.51 0-6.346-1.01-8.573-2.964s-3.375-4.58-3.375-7.881V.005h6.142v20.546c0 1.616.473 2.963 1.418 3.907.945.943 2.43 1.414 4.388 1.414 2.025 0 3.443-.471 4.388-1.415.945-.943 1.417-2.222 1.417-3.907V.005h6.143v21.017c0 3.3-1.148 5.928-3.375 7.881-2.16 2.021-5.063 2.964-8.573 2.964M202.869.005v31.256h-6.142V10.985l-8.843 14.483h-.743l-8.775-14.415V31.26h-6.143V.005h6.345l8.978 14.753L196.457.005zM16.694 52.615a8.16 8.16 0 0 1 3.443 2.761c.877 1.213 1.282 2.695 1.282 4.244 0 2.29-.81 4.177-2.43 5.793s-3.51 2.425-5.805 2.425H.358v-29.37h11.88c2.16 0 4.05.81 5.603 2.358 1.553 1.55 2.296 3.436 2.296 5.591 0 2.627-1.148 4.716-3.443 6.198M12.17 41.23h-8.91v10.238h8.91c1.35 0 2.565-.471 3.51-1.482.945-1.01 1.485-2.222 1.485-3.637s-.472-2.627-1.485-3.638c-1.012-1.01-2.092-1.481-3.51-1.481m1.013 23.845c1.485 0 2.7-.538 3.712-1.549 1.013-1.078 1.553-2.358 1.553-3.84s-.54-2.761-1.553-3.84c-1.012-1.077-2.295-1.616-3.712-1.616H3.26v10.845zM44.506 67.838 37.62 56.05h-8.235v11.788h-2.97v-29.37h11.813c2.43 0 4.523.876 6.278 2.56 1.755 1.752 2.565 3.773 2.565 6.265 0 2.02-.608 3.772-1.755 5.322-1.215 1.549-2.7 2.627-4.59 3.098l7.222 12.125zM29.385 41.231v12.125h8.843c1.62 0 3.037-.607 4.185-1.752 1.148-1.212 1.755-2.627 1.755-4.244 0-1.684-.608-3.098-1.755-4.31-1.148-1.146-2.565-1.752-4.185-1.752h-8.843zM102.761 38.469v2.762h-9.045v26.607h-2.97V41.231H81.7v-2.762zM125.915 38.469h2.971v29.37h-2.971V54.096h-15.998v13.741h-2.97v-29.37h2.97v12.867h15.998zM138.539 65.076h14.31v2.762h-17.281v-29.37h17.011v2.763h-14.108v10.373h13.028v2.762h-13.028v10.71zM175.935 67.838 169.05 56.05h-8.303v11.788h-2.97v-29.37h11.813c2.43 0 4.523.876 6.278 2.56 1.755 1.752 2.565 3.773 2.565 6.265 0 2.02-.607 3.772-1.755 5.322-1.215 1.549-2.7 2.627-4.59 3.098l7.223 12.125zm-15.12-26.607v12.125h8.843c1.62 0 3.037-.607 4.185-1.752 1.147-1.212 1.755-2.627 1.755-4.244 0-1.684-.608-3.098-1.755-4.31-1.148-1.146-2.565-1.752-4.185-1.752h-8.843zM192.406 68.31c-2.7 0-4.995-.607-6.952-1.887q-2.836-1.919-4.051-5.254l2.498-1.482c.54 1.82 1.485 3.234 2.97 4.244 1.418 1.01 3.24 1.55 5.535 1.55 2.161 0 3.916-.472 5.131-1.483q1.822-1.414 1.822-3.84c0-1.549-.54-2.694-1.687-3.502s-2.97-1.617-5.536-2.425q-4.555-1.516-6.075-2.425c-2.228-1.347-3.375-3.3-3.375-5.86 0-2.493.877-4.446 2.633-5.928 1.755-1.415 3.915-2.156 6.412-2.156 2.296 0 4.321.607 6.008 1.752 1.688 1.212 2.903 2.694 3.713 4.58l-2.498 1.415c-1.35-3.233-3.78-4.85-7.223-4.85-1.822 0-3.307.471-4.387 1.347-1.148.876-1.688 2.156-1.688 3.705 0 1.482.473 2.56 1.485 3.3 1.013.742 2.7 1.483 4.995 2.224 1.081.336 1.823.606 2.296.808.472.135 1.147.404 2.025.74.877.338 1.552.674 1.957.944s.945.606 1.553 1.078c.607.471 1.012.943 1.282 1.414.27.472.473 1.01.743 1.684.203.674.338 1.347.338 2.089 0 2.492-.946 4.513-2.768 5.995-1.823 1.482-4.185 2.222-7.156 2.222M55.711 64.672a12.77 12.77 0 0 1 9.923-4.715c4.05 0 7.628 1.819 9.923 4.715.27-.27.608-.539.878-.808 2.97-2.964 4.388-6.534 4.388-10.778s-1.485-7.814-4.388-10.778c-2.97-2.964-6.548-4.446-10.8-4.446-4.254 0-7.899 1.482-10.801 4.446-2.97 2.964-4.388 6.534-4.388 10.778s1.485 7.814 4.388 10.778c.27.337.54.606.877.808m9.923-21.623a6.79 6.79 0 0 1 6.818 6.804 6.79 6.79 0 0 1-6.818 6.803 6.79 6.79 0 0 1-6.818-6.803 6.79 6.79 0 0 1 6.818-6.804"/><path fill="#7C878E" d="M.358 82.523V75.45h.675v7.073zM9.943 75.45h.675v7.073h-.607l-4.253-5.86v5.86h-.675V75.45h.675l4.185 5.793zM18.99 75.45v.673h-2.228v6.4h-.675v-6.4h-2.228v-.673zM21.959 77.875V75.45h.675v2.425zM27.09 81.849h3.24v.674h-3.915V75.45h.675zM46.126 82.523h-.743L44.37 76.73l-2.497 5.59h-.203l-2.497-5.59-1.013 5.793h-.742l1.215-7.073h.675l2.43 5.523 2.497-5.523h.675zM54.631 82.523l-.742-1.82H50.31l-.743 1.82h-.742l2.902-7.073h.675l3.038 7.073zm-2.565-6.063-1.485 3.638h3.037zM63.474 75.45h.675v7.073h-.607l-4.253-5.86v5.86h-.675V75.45h.675l4.185 5.793zM70.697 75.45q1.013 0 1.62.606c.473.404.675.943.675 1.617 0 .606-.202 1.145-.675 1.616-.405.404-1.012.606-1.62.606h-1.755v2.628h-.675V75.45zm-.067 3.772c.472 0 .877-.135 1.147-.472.338-.269.473-.673.473-1.077 0-.472-.135-.809-.473-1.078a1.7 1.7 0 0 0-1.147-.404h-1.755v3.098h1.755zM79.54 82.657c-.54 0-1.012-.067-1.485-.27-.472-.201-.877-.47-1.147-.74-.338-.337-.608-.741-.743-1.145a3.5 3.5 0 0 1-.27-1.415c0-.539.068-1.01.27-1.482.203-.471.473-.808.743-1.145.337-.337.742-.606 1.147-.74.473-.203.945-.27 1.485-.27.675 0 1.35.134 1.89.471s1.013.741 1.35 1.28.473 1.213.473 1.886c0 .674-.135 1.28-.473 1.886-.337.54-.742 1.01-1.35 1.28-.54.202-1.147.404-1.89.404m0-.74c.878 0 1.553-.27 2.093-.876.54-.54.81-1.28.81-2.088 0-.54-.135-1.078-.405-1.483a2.77 2.77 0 0 0-1.08-1.077 2.96 2.96 0 0 0-1.553-.404c-.54 0-1.08.134-1.552.404-.473.27-.81.606-1.08 1.078a2.9 2.9 0 0 0-.405 1.481c0 .54.135 1.078.405 1.482.27.472.607.809 1.08 1.078.607.27 1.147.404 1.687.404M94.998 75.45h.743l-2.228 7.073h-.607l-2.026-5.39-2.025 5.39h-.675l-2.295-7.073h.743l1.89 5.927 2.16-5.725h.27l2.16 5.725zM99.724 81.849h3.375v.674h-4.05V75.45h3.915v.673h-3.24v2.425h2.97v.674h-2.97zM110.794 82.523l-1.687-2.897h-1.823v2.897h-.675V75.45h2.633q1.012 0 1.62.606c.405.404.607.876.607 1.55 0 .47-.135.942-.472 1.28-.338.336-.675.605-1.215.74l1.755 2.897zm-3.443-6.4v2.83h1.891c.472 0 .81-.135 1.147-.405q.405-.404.405-1.01a1.37 1.37 0 0 0-.405-1.01c-.27-.27-.675-.405-1.147-.405zM124.565 82.523l-.742-1.82h-3.578l-.743 1.82h-.742l2.902-7.073h.675l3.038 7.073zM122 76.46l-1.485 3.638h3.038zM131.181 79.087h3.78c0 .674-.203 1.28-.473 1.819s-.742.943-1.215 1.28c-.54.27-1.147.471-1.822.471s-1.283-.134-1.823-.471a3.9 3.9 0 0 1-1.282-1.28c-.338-.539-.473-1.145-.473-1.886 0-.674.135-1.28.473-1.886.337-.54.742-1.01 1.282-1.28.54-.337 1.148-.472 1.823-.472.877 0 1.62.27 2.227.741a3.36 3.36 0 0 1 1.215 1.819h-.81a2.37 2.37 0 0 0-.945-1.347 2.96 2.96 0 0 0-1.687-.54q-1.215 0-2.025.81c-.54.538-.81 1.28-.81 2.088 0 .875.27 1.549.81 2.155q.81.808 2.025.808 1.113 0 1.822-.606c.473-.404.81-.943.945-1.617h-3.037zM139.146 81.849h3.375v.674h-4.05V75.45h3.915v.673h-3.24v2.425h2.97v.674h-2.97zM150.892 75.45h.675v7.073h-.608l-4.253-5.86v5.86h-.675V75.45h.675l4.186 5.793zM158.722 82.657c-.54 0-1.012-.067-1.485-.27-.472-.201-.81-.403-1.147-.74-.338-.337-.54-.674-.743-1.145-.202-.472-.27-.943-.27-1.482 0-.674.135-1.347.473-1.886.337-.54.742-1.01 1.282-1.28.54-.337 1.148-.472 1.89-.472.81 0 1.485.202 2.093.674.608.404 1.013 1.01 1.215 1.751h-.742c-.203-.539-.541-.943-1.013-1.28-.473-.336-1.013-.471-1.62-.471-.81 0-1.553.27-2.093.808-.54.54-.81 1.28-.81 2.156s.27 1.55.81 2.088c.54.539 1.215.808 2.093.808.607 0 1.147-.134 1.62-.471.472-.337.81-.741 1.013-1.347h.742q-.303 1.212-1.215 1.818c-.54.472-1.215.741-2.093.741M170.603 75.45l-2.633 4.243v2.83h-.743v-2.83l-2.632-4.243h.81l2.227 3.57 2.228-3.57zM178.366 82.523V75.45h.675v7.073zM187.951 75.45h.675v7.073h-.54l-4.252-5.86v5.86h-.675V75.45h.675l4.185 5.793V75.45zM195.782 82.657c-.54 0-1.013-.067-1.485-.27-.473-.201-.81-.403-1.148-.74s-.54-.674-.742-1.145c-.203-.472-.27-.943-.27-1.482 0-.674.135-1.347.472-1.886.338-.54.743-1.01 1.283-1.28.54-.337 1.147-.472 1.89-.472.81 0 1.485.202 2.093.674s1.012 1.01 1.215 1.751h-.743c-.202-.539-.54-.943-1.012-1.28-.473-.336-1.013-.471-1.621-.471-.81 0-1.552.27-2.092.808-.54.54-.81 1.28-.81 2.156s.27 1.55.81 2.088c.54.539 1.215.808 2.092.808.608 0 1.148-.134 1.621-.471.472-.337.81-.741 1.012-1.347h.743q-.304 1.212-1.215 1.818c-.54.472-1.216.741-2.093.741M201.992 82.523v-.943h.81v.943z"/></svg>