<svg width="115" height="79" viewBox="0 0 115 79" fill="none" xmlns="http://www.w3.org/2000/svg">
<path fill-rule="evenodd" clip-rule="evenodd" d="M108.011 8.78913C104.841 3.30673 88.1686 6.88216 67.3867 16.5356C68.4439 17.3702 69.5003 18.3235 70.322 19.2769C86.2902 12.3646 98.6177 10.2196 101.201 14.748C104.136 19.873 92.5121 32.6252 73.8439 45.2585L74.0793 45.4965C96.8569 30.48 111.533 14.9868 108.011 8.78913Z" fill="#0A357E"/>
<path fill-rule="evenodd" clip-rule="evenodd" d="M9.62175 68.3791C7.86047 65.1608 11.6177 59.0828 19.1318 51.813C18.5448 51.6934 17.958 51.4549 17.3707 51.2167C17.2534 51.2167 17.2534 51.0971 17.2534 51.0971C16.6666 50.8591 16.0794 50.6208 15.4921 50.3828C6.45174 58.8433 1.87275 65.9947 3.98633 69.8093C6.56933 74.2186 17.7228 72.7884 32.6338 67.1871L32.5167 66.9489C20.5405 71.1199 11.7351 71.9541 9.62175 68.3791Z" fill="#0A357E"/>
<path fill-rule="evenodd" clip-rule="evenodd" d="M0.226562 31.3166C0.226562 18.3259 17.1335 7.71875 37.9149 7.71875C58.8136 7.71875 75.7208 18.3259 75.7208 31.3166C75.7208 44.4263 58.8136 55.0333 37.9149 55.0333C17.1335 55.033 0.226562 44.4263 0.226562 31.3166ZM21.5949 12.9629L28.7574 37.6331L36.2712 9.74459C30.9876 9.98358 25.9392 11.0554 21.5949 12.9629ZM35.9189 23.2125L32.0443 37.6331H39.9109L35.9189 23.2125ZM47.0729 37.6331L53.8826 12.7244C49.4212 10.9366 44.3725 9.86371 39.0889 9.74459L47.0729 37.6331ZM21.4778 37.6331L17.6027 23.2125L13.7288 37.6331H21.4778ZM66.2105 40.4933C68.0889 37.752 69.1461 34.6535 69.1461 31.3163C69.1461 24.9998 65.2715 19.3983 58.931 15.3459L66.2105 40.4933ZM58.2271 37.6331L54.2351 23.2125L50.3607 37.6331H58.2271ZM59.049 40.4933H49.5385L48.717 43.592L50.9475 50.9801C54.5872 49.9077 57.8743 48.2393 60.5751 46.2144L59.049 40.4933ZM25.1175 50.9803L22.2993 40.4935H12.9069L12.0846 43.4724C15.3723 46.8093 19.8336 49.4318 25.1172 51.1L25.1175 50.9803ZM40.7331 40.4933H31.2226L28.1699 51.9341C31.2226 52.6498 34.5104 53.0067 37.9149 53.0067C40.0285 53.0067 42.0242 52.8881 44.0202 52.5302L40.7331 40.4933ZM16.3116 15.8231C10.4412 19.7557 6.80154 25.2386 6.80154 31.3166C6.80154 34.6538 7.85796 37.6331 9.61925 40.3742L16.3116 15.8231Z" fill="#FD000D"/>
</svg>
