<svg width="141" height="68" viewBox="0 0 141 68" fill="none" xmlns="http://www.w3.org/2000/svg">
<path d="M36.5635 0H0V42.2121H36.5635V0ZM33.6374 34.1245H2.92474V2.96697H33.6374V34.1245Z" fill="#0076BD"/>
<path d="M48.7578 42.2072H50.4002V28.1641H48.7578V42.2072Z" fill="#020303"/>
<path d="M53.3709 35.1274C53.3709 34.2745 53.293 33.5411 53.293 32.9248H54.7405C54.7405 33.421 54.7794 33.938 54.7794 34.4529H54.8184C55.2296 33.5411 56.363 32.6875 57.8693 32.6875C60.2745 32.6875 61.3491 34.235 61.3491 36.4771V42.2075H59.8244V36.6346C59.8244 35.0878 59.1595 34.1156 57.7311 34.1156C55.7577 34.1156 54.8957 35.5631 54.8957 37.6866V42.2075H53.3709V35.1274Z" fill="#020303"/>
<path d="M64.2427 39.7677C64.8495 40.5227 65.5144 41.0189 66.589 41.0189C67.5467 41.0189 68.6043 40.6011 68.6043 39.5915C68.6043 38.5991 67.6261 38.3403 66.6478 38.1231C64.9069 37.7247 63.4225 37.3479 63.4225 35.4251C63.4225 33.6194 65.1415 32.6875 66.8435 32.6875C68.1336 32.6875 69.328 33.1837 69.9518 34.3738L68.6823 35.2266C68.291 34.5722 67.6459 34.1156 66.7457 34.1156C65.905 34.1156 64.9473 34.532 64.9473 35.4042C64.9473 36.1794 66.0418 36.5152 67.2532 36.754C68.8772 37.0711 70.2453 37.6665 70.2453 39.5304C70.2453 41.633 68.4079 42.4456 66.589 42.4456C65.0451 42.4456 63.9301 42.0299 63.0312 40.7212L64.2427 39.7677Z" fill="#020303"/>
<path d="M80.1618 40.0028C80.1618 40.8578 80.2383 41.5905 80.2383 42.2046H78.7937C78.7937 41.7092 78.7533 41.1936 78.7533 40.6773H78.715C78.3039 41.5905 77.1711 42.4426 75.6648 42.4426C73.2596 42.4426 72.1836 40.8959 72.1836 38.6545V32.9219H73.7091V38.497C73.7091 40.0438 74.3733 41.016 75.8016 41.016C77.7758 41.016 78.637 39.5663 78.637 37.4442V32.9219H80.1618V40.0028Z" fill="#020303"/>
<path d="M82.8599 35.1274C82.8599 34.2745 82.7812 33.5411 82.7812 32.9248H84.2273C84.2273 33.421 84.267 33.938 84.267 34.4529H84.306C84.7171 33.5411 85.8513 32.6875 87.3562 32.6875C87.5519 32.6875 87.7673 32.7076 87.9828 32.7867L87.8843 34.3536C87.6305 34.2745 87.3371 34.235 87.0635 34.235C85.207 34.235 84.384 35.5631 84.384 37.6866V42.2075H82.8599V35.1274Z" fill="#020303"/>
<path d="M90.389 35.1274C91.1107 34.4529 92.1272 34.1156 93.1047 34.1156C94.5323 34.1156 95.373 34.8103 95.373 36.1586V36.4361H94.7868C92.5383 36.4361 89.0195 36.6145 89.0195 39.6893C89.0195 41.4942 90.5641 42.4456 92.4213 42.4456C93.8071 42.4456 94.8258 41.7718 95.4326 40.8204H95.4701C95.4701 41.2166 95.4701 41.7919 95.5694 42.2075H97.0353C96.9559 41.7322 96.8985 41.1368 96.8985 40.6011V36.6145C96.8985 33.9962 95.7636 32.6875 93.065 32.6875C91.7366 32.6875 90.3671 33.1434 89.4307 34.1156L90.389 35.1274ZM95.373 37.7456V38.3403C95.3333 39.8482 94.4345 41.1368 92.6758 41.1368C91.5211 41.1368 90.6598 40.7018 90.6598 39.5304C90.6598 38.2806 91.9124 37.7456 93.8483 37.7456H95.373Z" fill="#020303"/>
<path d="M99.4967 35.1274C99.4967 34.2745 99.418 33.5411 99.418 32.9248H100.865C100.865 33.421 100.904 33.938 100.904 34.4529H100.943C101.353 33.5411 102.489 32.6875 103.994 32.6875C106.399 32.6875 107.475 34.235 107.475 36.4771V42.2075H105.949V36.6346C105.949 35.0878 105.284 34.1156 103.858 34.1156C101.883 34.1156 101.021 35.5631 101.021 37.6866V42.2075H99.4967V35.1274Z" fill="#020303"/>
<path d="M116.685 35.2467C116.039 34.4529 115.296 34.1156 114.378 34.1156C112.325 34.1156 111.289 35.6624 111.289 37.5658C111.289 39.4714 112.52 41.0189 114.378 41.0189C115.374 41.0189 116.138 40.6608 116.703 39.8669L117.837 40.9585C116.957 41.9904 115.705 42.4456 114.378 42.4456C111.542 42.4456 109.645 40.4228 109.645 37.5658C109.645 34.7506 111.562 32.6875 114.378 32.6875C115.727 32.6875 116.978 33.1434 117.896 34.1552L116.685 35.2467Z" fill="#020303"/>
<path d="M126.422 39.6102C125.698 40.5414 124.819 41.0189 123.509 41.0189C121.847 41.0189 120.634 39.6497 120.518 38.0433H127.908V37.5471C127.908 34.4723 126.149 32.6875 123.568 32.6875C120.869 32.6875 118.875 34.6909 118.875 37.5658C118.875 40.2653 120.634 42.4456 123.509 42.4456C125.211 42.4456 126.5 41.9307 127.576 40.5227L126.422 39.6102ZM120.518 36.7338C120.712 35.1669 121.827 34.1156 123.509 34.1156C125.19 34.1156 126.207 35.1669 126.266 36.7338H120.518Z" fill="#020303"/>
<path d="M48.7656 22.8842H52.1299L53.2846 19.9064H58.6676L59.8614 22.8842H63.3057L57.2776 8.82812H54.7533L48.7656 22.8842ZM57.6299 17.2854H54.2444L55.9272 12.9183L57.6299 17.2854Z" fill="#020303"/>
<path d="M64.3633 22.8839H67.2994V7.875H64.3633V22.8839Z" fill="#020303"/>
<path d="M69.4492 22.8839H72.386V7.875H69.4492V22.8839Z" fill="#020303"/>
<path d="M76.0074 8.46875C76.9459 8.46875 77.7093 9.24321 77.7093 10.1967C77.7093 11.1495 76.9459 11.9225 76.0074 11.9225C75.0667 11.9225 74.3047 11.1495 74.3047 10.1967C74.3047 9.24321 75.0667 8.46875 76.0074 8.46875ZM74.5386 13.2342H77.4747V22.8822H74.5386V13.2342Z" fill="#020303"/>
<path d="M86.5339 19.6904C86.0434 20.3656 85.3976 20.8618 84.4393 20.8618C83.3044 20.8618 82.4623 20.1262 82.2276 18.9951H89.0397V18.0617C89.0397 14.9854 87.3165 13 84.5761 13C81.6407 13 79.293 14.9854 79.293 18.0617C79.293 21.1387 81.6407 23.1248 84.5761 23.1248C86.1022 23.1248 87.649 22.4302 88.5889 21.2192L86.5339 19.6904ZM82.2276 16.9701C82.3077 16.0374 83.0109 15.145 84.3032 15.145C85.3587 15.145 86.1228 15.9778 86.1022 16.9701H82.2276Z" fill="#020303"/>
<path d="M100.8 7.875H97.8635V14.2677H97.8246C97.1604 13.3343 96.0255 12.9971 94.8112 12.9971C92.1119 12.9971 90.4688 15.4585 90.4688 18.1393C90.4688 21.0574 92.326 23.1219 95.1451 23.1219C96.4756 23.1219 97.6105 22.3079 98.0606 21.6132H98.0996V22.8839H100.8V7.875ZM98.0996 18.0588C98.0996 19.5092 97.2178 20.5015 95.7497 20.5015C94.2831 20.5015 93.4034 19.5092 93.4034 18.0588C93.4034 16.6098 94.2831 15.6175 95.7497 15.6175C97.2178 15.6175 98.0996 16.6098 98.0996 18.0588Z" fill="#020303"/>
</svg>
