<svg width="208" height="48" viewBox="0 0 208 48" fill="none" xmlns="http://www.w3.org/2000/svg">
<path d="M201.725 38.6485C200.377 38.6485 199.434 37.7337 199.434 36.3716C199.434 35.0137 200.39 34.0824 201.725 34.0824C203.076 34.0824 204.015 35.0055 204.015 36.3716C204.011 37.7296 203.055 38.6485 201.725 38.6485ZM201.725 34.3491C200.634 34.3491 199.767 35.0752 199.767 36.3716C199.767 37.6557 200.634 38.3819 201.725 38.3819C202.823 38.3819 203.691 37.6557 203.691 36.3716C203.691 35.0752 202.815 34.3491 201.725 34.3491ZM202.402 37.5901L201.628 36.5111H201.375V37.5532H200.929V35.0301H201.716C202.263 35.0301 202.626 35.2926 202.626 35.7644C202.626 36.1255 202.423 36.3634 202.099 36.4619L202.849 37.4916L202.402 37.5901ZM201.712 35.4198H201.375V36.1665H201.695C201.986 36.1665 202.171 36.0516 202.171 35.7932C202.167 35.547 202.007 35.4198 201.712 35.4198ZM80.5077 10.9973L62.8529 38.6485H68.8529C68.8529 38.6485 73.2066 31.7644 73.3582 31.5306H83.4887L83.4929 38.6526H89.1898V10.9973H80.5077ZM83.4803 26.6321H76.5161C76.9498 25.9593 83.4803 15.6208 83.4803 15.6208V26.6321ZM93.2319 10.9973H98.7687V38.6526H93.2319V10.9973ZM102.798 10.9973H108.327V38.6526H102.798V10.9973ZM120.512 25.5901C117.501 24.8229 116.87 24.3962 116.95 23.1737C117.013 22.066 117.939 21.4301 119.489 21.4301C121.4 21.4301 123.741 22.0865 125.754 23.186L126.07 23.3624L126.832 18.747L126.651 18.665C124.588 17.746 122.116 17.2578 119.489 17.2578C116.962 17.2578 114.811 18.0167 113.426 19.3952C112.327 20.4947 111.762 21.9142 111.792 23.4937C111.889 27.7562 113.973 28.9624 118.916 30.2014C122.183 30.985 122.849 31.4526 122.823 32.9706C122.807 34.3326 121.969 34.8496 119.75 34.8496C117.426 34.8496 114.807 34.0167 112.533 32.5685L112.205 32.3552L111.438 36.987L111.602 37.0773C113.371 38.025 116.398 39.0219 119.586 39.0219C122.676 39.0219 124.958 38.308 126.369 36.9173C127.468 35.826 128.011 34.3532 127.986 32.5234C127.901 27.9408 125.531 26.8496 120.512 25.5901ZM141.417 33.9921L141.131 34.066C140.752 34.1685 140.268 34.2219 139.611 34.2219C137.969 34.2219 137.207 33.4998 137.207 31.9408V22.148H141.266L141.346 17.6434H137.211V10.9932H131.767V17.6434H128.92V22.148H131.767V32.7532C131.767 36.9542 134.015 39.0055 138.659 39.0055C140.158 39.0055 141.076 38.8373 141.889 38.665L142.137 38.6198L141.417 33.9921ZM153.202 17.2126C149.758 17.2126 147.16 18.0291 145.093 18.8208L144.895 18.8947L145.607 23.3296L145.918 23.1983C148.398 22.1316 150.499 21.6311 152.546 21.6311C154.727 21.6311 155.754 22.5091 155.754 24.4044V24.946C147.577 25.7665 143.598 28.4824 143.598 33.2578C143.598 36.786 145.943 39.0588 149.581 39.0588C152.099 39.0588 154.188 38.1644 156.116 36.3388C156.221 36.9501 156.503 38.6526 156.503 38.6526H161.287V24.2567C161.274 19.4567 158.714 17.2126 153.202 17.2126ZM151.287 34.8496C149.922 34.8496 149.08 34.0373 149.08 32.7285C149.08 30.4024 151.383 28.8803 155.746 28.3101V32.8639C154.394 34.1562 152.857 34.8496 151.287 34.8496ZM175.476 33.9921L175.194 34.066C174.815 34.1685 174.327 34.2219 173.682 34.2219C172.036 34.2219 171.266 33.4998 171.266 31.9408V22.148H175.333L175.405 17.6434H171.261V10.9932H165.809V17.6434H162.979V22.148H165.809V32.7532C165.809 36.9542 168.074 39.0055 172.718 39.0055C174.213 39.0055 175.173 38.8332 175.948 38.665L176.192 38.6198L175.476 33.9921ZM194.457 32.3716C191.981 34.0455 189.956 34.7675 187.666 34.7675C184.693 34.7675 182.849 32.8065 182.533 29.3973H195.434L195.489 27.9614C195.489 20.8434 192.453 17.225 186.453 17.2126C183.817 17.2044 181.657 18.0126 180.032 19.6003C178.049 21.5203 177.005 24.507 177.005 28.2075C177.005 34.907 180.891 39.0588 187.122 39.0588C190.167 39.0588 192.929 38.2301 195.333 36.6178L195.468 36.5316L194.794 32.1378L194.457 32.3716ZM182.609 25.8403C182.857 22.8291 184.205 21.0978 186.331 21.0978C189.194 21.0978 189.952 23.6126 190.066 25.8403H182.609ZM30.4824 1.42188C14.4066 1.42188 1.32031 11.0957 1.32031 22.9932C1.32031 34.8824 14.4024 45.3152 30.4824 45.3152C46.5624 45.3152 59.6403 34.8824 59.6403 22.9932C59.6445 11.0957 46.5624 1.42188 30.4824 1.42188ZM30.4866 43.8424C16.5666 43.8424 5.24031 34.1111 5.24031 23.0178C5.24031 11.9203 16.5666 2.8947 30.4866 2.8947C44.4108 2.8947 55.7329 11.9203 55.7329 23.0178C55.7329 34.1111 44.4108 43.8424 30.4866 43.8424Z" fill="#0076C0"/>
<path d="M24.9234 32.2723L25.4244 32.7687C25.4244 32.7728 26.4349 33.3185 26.4349 33.3185L27.3907 33.8272L27.5128 33.8929L28.216 34.2744L29.4034 34.9062C29.4749 34.9267 29.6181 34.9267 29.6181 34.9267L31.1423 34.8323C32.0181 34.8159 33.0371 34.8323 33.7234 35.1359C34.4771 35.5134 34.2202 36.1944 34.2202 36.1944C34.2202 36.1944 34.9992 35.6528 34.8518 35.0087C34.776 34.4631 34.1023 33.7452 31.8792 33.618C31.1802 33.577 30.1276 33.6713 30.1276 33.6713H30.0307C30.0307 33.6549 29.0328 33.0313 29.0328 33.0313L28.616 32.7975C28.5571 32.7728 27.2349 32.0918 27.2349 32.0918C27.2349 32.0918 26.3971 31.7718 26.3928 31.7677C26.3928 31.7431 25.6434 30.7216 25.6434 30.7216L25.3697 30.3441L24.5697 29.22L24.2286 28.7318C24.2076 28.7031 23.7697 28.0426 23.7697 28.0426C23.8076 28.0508 24.2244 27.4272 24.1781 26.7626C24.1192 26.8529 24.0771 26.8734 23.7655 27.1359C23.4497 27.3862 22.5149 27.7964 21.8876 27.9564L21.6055 28.0303L23.8371 30.8857L24.9234 32.2723V32.2723ZM28.5865 30.6559L28.7381 30.8446C28.8013 30.898 29.7444 31.2631 29.7444 31.2631C30.376 31.5134 31.2392 31.899 31.6392 32.137L32.7044 32.7482C32.7886 32.7811 33.8876 32.7031 34.6076 32.7605C35.5128 32.8303 36.216 33.1626 36.5823 33.6795C37.0749 34.3605 36.4771 35.0908 36.4771 35.0908C36.6076 35.0252 37.6307 34.3934 37.5592 33.3841C37.4918 32.4159 36.6328 31.5093 33.4455 31.5462C33.4455 31.538 32.5697 31.0416 32.5697 31.0416L32.3128 30.8939L30.8981 30.1882C30.8981 30.1882 29.7486 29.8067 29.7444 29.8067C29.7444 29.7657 29.4749 29.3144 29.4749 29.3144C29.1002 28.658 28.5823 28.0098 28.136 27.4354L27.9971 27.2713C27.9971 27.2713 27.2139 26.217 27.1213 26.0857C27.3697 25.5646 27.1592 24.8139 27.1592 24.8139C27.1592 24.8139 27.0286 25.0641 26.8097 25.3308C26.5907 25.6016 26.0139 26.0487 25.6097 26.2621L25.395 26.3975L28.2876 30.2457L28.5865 30.6559V30.6559ZM29.8918 23.7677C30.0686 23.1482 29.7318 22.5411 29.7318 22.5411L29.5592 22.9349C29.416 23.2754 29.0328 23.6652 28.4392 24.0385L28.2623 24.1329L30.5992 27.3903C30.5992 27.3944 30.7381 27.6036 30.7381 27.6036L31.1844 28.1903C31.2434 28.2477 32.1613 28.7523 32.1613 28.7523L32.5065 28.9411L33.5592 29.5523L34.5234 30.18L34.5949 30.2005L36.0349 30.2908C36.9023 30.3605 37.4076 30.6764 37.6686 30.857C38.5781 31.497 38.0897 32.4529 38.0897 32.4529C38.0897 32.4529 39.3065 31.3329 38.5065 30.1226C38.2076 29.7041 37.7949 29.3021 36.5823 29.1667L35.096 28.9657C35.096 28.9534 34.296 28.4282 34.296 28.4282L33.2518 27.7964L32.9823 27.6405L32.1234 27.2754L29.8918 23.7677V23.7677ZM20.1739 4.44054C20.2497 4.51439 20.4939 4.75234 20.4939 4.75644L21.6728 5.8067C21.6728 5.8149 22.3465 6.42619 22.3465 6.42619C22.8434 6.88978 22.9613 7.12772 22.9444 7.22208C22.9234 7.31234 22.8307 7.35336 22.7423 7.4026C22.6539 7.45183 22.515 7.48465 22.515 7.48465L22.4602 7.91952L22.7381 7.90721C24.2918 7.87029 25.7528 8.89593 26.7002 9.76567C28.3423 11.2918 29.5844 13.7657 29.8581 16.0754L31.1423 22.5821L31.6265 23.5831L31.7192 23.7882L31.9297 24.2149C32.1107 24.6375 32.3928 25.0149 32.4181 25.0395C32.4476 25.0682 33.0834 25.5605 33.0834 25.5605L34.0097 26.4836L34.2834 26.7708L34.7255 27.2016C34.7592 27.2262 36.0686 27.3903 36.0686 27.3903C38.3465 27.7595 38.2455 28.9903 38.2455 28.9903C38.2455 28.9903 39.6013 26.9636 36.3676 26.2539C36.3676 26.2539 35.3486 26.0652 35.3276 26.0652V26.0611C35.3276 26.0364 34.9655 25.5564 34.9655 25.5564C34.9234 25.5113 34.8434 25.4252 34.8434 25.4252C34.8223 25.4005 33.8581 24.4734 33.8581 24.4734L33.416 24.0631C33.416 24.0549 33.0118 23.0087 33.0118 23.0087L32.4392 21.659C32.2918 21.2446 32.1992 20.58 32.0686 19.6652C32.0602 19.6282 31.9676 19.0046 31.9676 19.0046L31.5423 16.2764C31.5465 16.2313 31.6392 15.7431 31.6392 15.7431C31.8244 14.7216 32.216 13.5893 32.8097 12.3749C33.5213 10.9185 34.9865 9.95849 35.0076 9.95029C36.1023 9.28978 37.7065 8.92465 38.5697 8.76465C38.8981 8.73183 39.0034 8.54311 39.0623 8.35439L39.1002 8.24362L38.9907 8.22721C38.5149 8.14106 37.9634 7.98516 37.9213 7.89901C37.9128 7.8826 37.9044 7.84567 37.9044 7.81695C37.9044 7.7349 37.9676 7.60362 38.0813 7.43542C38.0855 7.43542 38.7844 6.77901 38.7844 6.77901L39.1928 6.38516C39.1928 6.38516 40.9023 4.77285 41.1297 4.55952L39.5423 4.03849C39.3318 4.24772 37.7865 5.8108 37.7865 5.8108C36.6244 7.02516 35.3149 8.39952 34.7128 8.64157C33.2392 9.22824 31.7276 10.6313 31.1297 11.977C31.1297 11.9811 30.8686 12.6416 30.7255 13.0026C30.2792 11.7472 29.7192 10.7093 28.9571 9.8026C28.1234 8.83029 27.1044 8.10003 25.8371 7.59952C25.1507 6.96362 22.8897 4.94926 21.6644 3.96875L20.1739 4.44054V4.44054ZM26.2076 37.2816C24.1318 38.3113 22.9823 37.417 23.4876 36.3339C24.1655 36.777 25.2139 37.1011 26.2076 37.2816ZM22.6455 35.7431C21.2307 36.1205 20.7086 35.1523 21.0413 34.3646C21.3107 34.6682 22.3086 35.5421 22.6455 35.7431ZM9.92969 11.0826C10.0392 11.1564 10.3171 11.3534 10.3171 11.3534C10.355 11.378 12.1107 12.7975 12.3718 13.0108C12.3297 13.1216 11.6055 15.0703 11.6055 15.0703C10.9444 16.6949 10.2792 18.3318 10.2413 19.6241L10.2539 19.8334C10.2581 19.8621 10.8265 22.7585 10.8265 22.7585L10.8686 22.9718C11.1886 24.4939 11.5507 26.2252 11.7023 27.4682C11.736 27.8211 11.8244 28.0344 11.9634 28.1164C12.8307 28.9944 14.2455 30.779 15.955 34.1841C16.0055 34.2744 16.0307 34.3277 16.056 34.3646C16.2202 34.8323 16.4265 35.1482 16.6707 35.3C16.9823 35.4887 17.576 35.5011 17.9634 35.3C18.8392 34.7421 19.4581 33.9585 19.8413 33.0108C19.976 33.1667 20.3381 33.6303 20.3971 33.6959C18.9234 36.1821 21.5297 37.1011 22.4518 36.7482C21.9171 38.2539 23.8918 39.4641 25.7486 38.66C25.9886 39.6364 26.7844 39.9236 27.5423 40.0631C28.296 40.2108 29.3192 40.2887 30.9949 40.1411C33.5128 39.94 35.7992 39.1893 36.7171 38.7257C38.6581 37.7616 39.7149 36.5349 40.3381 35.6734C40.3465 35.6529 40.4602 35.5216 40.536 35.419C40.7423 35.7759 40.9571 36.1082 41.2013 36.3626C41.8202 36.9534 42.4013 37.2159 42.8771 37.1339C43.2139 37.0723 43.4792 36.8713 43.656 36.4939C44.5192 34.4713 46.4013 31.977 47.8749 30.3072C47.8749 30.3031 48.0139 30.0405 48.0139 30.0405C48.3381 28.8549 49.4834 25.9175 50.0939 24.3298L50.5276 23.1893C50.5276 23.1811 50.6118 22.9144 50.6118 22.9144C50.6413 22.459 50.6581 22.0036 50.6581 21.5564C50.6581 19.5134 50.3549 17.5605 49.7781 15.9113C49.496 15.0744 49.2097 14.5698 48.9402 14.0775L48.6286 13.5236C49.0497 12.9164 50.2707 12.1123 51.2518 11.4682C51.2518 11.4682 51.3065 11.4354 51.3276 11.4272L50.1234 10.1431C50.0476 10.1923 49.2813 10.7093 49.2813 10.7093C48.4055 11.2918 47.5213 11.5257 46.9697 11.3123C46.8897 11.2836 46.1613 10.8816 46.1613 10.8816C46.1192 10.8529 45.9886 10.7954 45.9886 10.7954C45.9634 10.7913 45.7402 10.7626 45.7402 10.7626C45.7107 10.7626 45.4707 10.8159 45.4707 10.8159L45.3107 10.8529L45.5592 11.1318C46.0728 11.7267 46.3381 12.2354 46.7086 12.9287C46.7171 12.9452 46.9318 13.3349 46.9318 13.3349L47.1423 13.8149L47.1844 13.9134L47.4623 14.6108L47.5128 14.7585L47.6644 15.1605L48.2455 17.1462C48.7381 19.1687 48.9865 20.8344 48.9992 22.258C48.9992 22.2785 48.9781 22.4221 48.9781 22.4221C48.9739 22.4303 48.296 24.2929 48.296 24.2929C47.5928 26.2293 46.7128 28.6375 46.5149 29.6303L46.4728 29.7493C44.5907 31.6611 43.256 33.9175 42.6876 35.2631C42.5992 35.4395 42.536 35.4641 42.5107 35.4682C42.4223 35.4846 42.2034 35.2877 42.0855 35.1811C41.6139 34.7667 41.3318 33.9052 41.3655 32.9903C41.4118 31.8744 41.9044 30.8775 42.7297 30.2498C42.8644 30.1513 42.8139 29.9667 42.7844 29.86C42.5571 28.5882 42.9234 26.6395 43.7318 26.0857L43.9381 25.938L43.736 25.7862C41.4286 24.0426 40.3002 20.8221 40.2034 18.418L40.1907 18.1021L39.8328 18.2498C39.7907 18.2826 39.656 18.4877 39.656 18.4877C39.5634 18.9554 39.5255 19.4313 39.5255 19.8908C39.5255 21.1257 39.7697 22.2046 39.8707 22.5903C40.1907 23.9195 40.8644 25.1462 41.8539 26.2539L41.896 26.3031C41.4665 26.8282 41.2771 28.1082 41.2771 29.0929C41.2771 29.3964 41.2939 29.6549 41.3318 29.8682C40.2539 30.7749 39.9549 31.9277 39.896 32.7441C39.896 32.7441 39.9297 33.6139 39.9297 33.6221C39.9171 33.6016 39.4034 34.2703 39.4034 34.2703L39.3023 34.4139C38.2792 35.7882 37.5592 36.7482 35.8455 37.6057C33.976 38.5493 30.3634 39.2016 28.0139 38.9759C27.1507 38.8816 27.2434 38.1267 27.2434 38.0898C27.2434 37.9872 27.2813 37.8764 27.3613 37.778C27.3613 37.778 27.5339 37.5975 27.5844 37.5441C29.8076 37.7903 31.9255 37.5277 32.8055 37.0723C32.8434 37.0395 33.1128 36.6457 33.1128 36.6457L33.2181 36.4611L33.0034 36.5103C31.1128 36.9739 27.3613 36.3667 25.3739 35.5462C23.1676 34.6272 22.4939 33.7575 20.6876 31.4354L20.1823 30.7913C20.1655 30.1431 19.9844 29.4826 19.6644 28.9246C19.3613 28.4036 18.9613 28.0713 18.8434 27.9811C18.9781 27.5913 19.0581 27.0498 19.0581 26.4754C19.0581 25.6959 18.9107 24.9082 18.6328 24.4693C19.976 23.4477 20.6539 22.3975 20.6371 21.1913C20.6244 20.6211 20.3044 19.7513 20.3044 19.7513L19.7907 19.5175L19.8244 19.8498C20.0307 21.8887 18.0813 23.2098 16.7886 24.0918C16.7886 24.0959 16.4097 24.3462 16.4097 24.3462L16.6581 24.498C17.6686 25.1134 17.6855 27.1852 17.4539 28.3503L17.4413 28.4159L17.496 28.5103L17.5549 28.539C17.5465 28.5349 18.0392 28.9205 18.0392 28.9205C19.0581 30.2539 18.9739 32.3175 17.8539 33.5359C17.6265 33.7657 17.5044 33.7944 17.4413 33.7903C17.2728 33.7575 17.1423 33.3759 17.1044 33.2487C17.096 33.2323 16.7886 32.6087 16.7886 32.6087C15.9086 30.82 15.1676 29.3185 13.4539 27.3246C13.4539 27.3205 13.4118 27.1646 13.4118 27.1646C13.0792 24.5513 12.6623 22.6149 12.2539 20.7482L12.0307 19.7349C12.0307 19.7308 12.0055 19.4723 12.0055 19.4723C12.1276 17.4867 12.7592 15.9277 13.496 14.1226L13.9423 12.9944L14.3128 12.1329C14.3171 12.1329 14.3802 12.0057 14.3802 12.0057C14.8139 11.4026 15.3992 10.8282 16.1065 10.299L16.4223 10.0693L16.0097 9.90106C16.0097 9.90106 15.2097 9.98721 14.4055 10.3729L14.2623 10.4385C13.6728 10.7052 12.9992 10.9144 12.4897 10.7216C12.4897 10.7216 11.1381 9.93798 11.0707 9.90106L9.92969 11.0826V11.0826Z" fill="#0076C0"/>
</svg>
