<svg width="136" height="72" viewBox="0 0 136 72" fill="none" xmlns="http://www.w3.org/2000/svg">
<g clip-path="url(#clip0_695_33)">
<path d="M37.4279 31.7337H62.3792C62.3792 31.7337 65.7015 35.4888 67.9437 35.4888C70.1859 35.4888 73.5081 31.7337 73.5081 31.7337H98.5552C98.5552 31.7337 100.004 -0.0078125 67.9437 -0.0078125C36.2247 -0.0078125 37.4279 31.7337 37.4279 31.7337Z" fill="white"/>
<path d="M38.7422 30.2773H97.1078C97.1078 30.2773 96.9984 1.46094 68.0002 1.46094C38.5918 1.46094 38.7422 30.2773 38.7422 30.2773Z" fill="#013088"/>
<path d="M58.9884 2.74219C58.4962 7.73538 58.5646 12.7286 58.6739 17.7082C53.9571 15.7626 49.2266 14.402 44.5098 13.3544C47.1758 17.5857 50.0059 21.7218 53.2599 25.5585C48.3379 26.851 43.4844 28.3204 38.8633 30.3068H97.0238C92.6761 28.3476 87.5218 27.0551 82.6272 25.5585C85.5393 21.8714 88.4651 18.5653 91.3773 13.3544C86.4964 14.3884 81.7796 15.8714 77.2131 17.7082C77.3635 12.783 77.4455 7.85783 76.8987 2.74219C73.4123 6.49729 70.8146 10.7014 67.8752 14.7422C65.3595 10.7422 62.297 6.74219 58.9884 2.74219Z" fill="#B5C4EB"/>
<path d="M54.2032 30.3058C50.5391 27.6935 47.4766 25.2173 45.125 22.9452C49.1856 22.3466 52.959 22.3194 57.0196 22.3058C55.2149 18.6459 54.8321 14.918 53.8751 11.1221C57.4845 13.3398 61.3126 15.2581 63.9376 18.0472C64.5665 14.1969 66.1251 10.2241 67.9708 6.52344C69.5568 10.3194 71.2248 14.1153 71.9767 17.7615C75.2717 14.85 78.5529 13.1357 81.8479 11.2309C81.1506 15.367 80.1936 19.1901 78.7444 22.4282C82.6955 22.333 86.6467 22.2785 90.7483 23.0677C87.6995 26.1153 84.6643 28.1425 81.6155 30.3194L54.2032 30.3058Z" fill="white"/>
<path d="M67.9434 33.8155V17.625H58.7148C58.7695 27.0672 63.336 31.7611 67.9434 33.8155Z" fill="#E01A33"/>
<path d="M67.9023 33.8155V17.625H77.1309C77.0762 27.0672 72.5098 31.7611 67.9023 33.8155Z" fill="#B20032"/>
<path d="M0.0078125 38.1386V54.1522H3.17971V47.5808H9.78326V44.8733H3.17971V40.8325H10.3165L11.2735 38.125H0.0078125V38.1386Z" fill="#013088"/>
<path d="M85.3477 38.1406V54.1542H88.5196V54.1406H95.8204V51.4467H88.5196V47.1474H95.1231V44.4535H88.5196V40.8481H95.67L96.627 38.1406H85.3477Z" fill="#013186"/>
<path d="M21.3926 38.2109L14.9258 54.3742H18.4121L19.6563 50.9456H26.0958L27.2989 54.3062H30.9493L24.5098 38.2245H21.3926V38.2109ZM22.8282 42.4558L25.2618 48.4694H20.4219L22.8282 42.4558Z" fill="#013088"/>
<path d="M38.0312 38.1406V54.3039H41.4356V48.059H42.9532L47.2188 54.3447H51.211L46.3575 47.542C46.3575 47.542 49.6934 46.5896 49.6934 43.3379C49.6934 38.2631 44.6211 38.1406 44.6211 38.1406H38.0312ZM41.4219 40.6848H44.1563C44.1563 40.6848 46.5215 40.8753 46.5215 43.1882C46.5215 45.542 44.1016 45.6508 44.1016 45.6508H41.3946L41.4219 40.6848Z" fill="#013088"/>
<path d="M104.461 38.1406V54.3039H107.865V48.059H109.383L113.648 54.3447H117.641L112.801 47.5556C112.801 47.5556 116.137 46.6032 116.137 43.3515C116.137 38.2767 111.064 38.1542 111.064 38.1542H104.461V38.1406ZM107.852 40.6848H110.586C110.586 40.6848 112.951 40.8753 112.951 43.1882C112.951 45.542 110.531 45.6508 110.531 45.6508H107.824L107.852 40.6848Z" fill="#013088"/>
<path d="M62.1739 44.2674L61.4356 54.3626H58.332L59.6856 38.2266H62.9258L67.793 48.7844L72.3184 38.2266H75.2989L76.7892 54.2946H73.4122L72.8653 44.1994L68.1348 54.2946H66.7129L62.1739 44.2674Z" fill="#013088"/>
<path d="M123.957 52.5394L125.516 50.1856C128.469 52.1312 130.643 52.172 132.502 50.8931C132.898 49.587 132.598 48.8931 131.982 48.4169L126.664 46.2945C124.367 44.4713 123.506 42.3353 126.063 39.4373C128.373 37.4917 131.354 37.4645 134.922 39.0972L134.785 42.1176C132.734 41.3965 130.82 39.8999 128.428 41.1788C127.238 42.7298 128.305 43.4509 129.043 43.9543C132.447 45.1652 135.031 46.172 135.66 47.5598C136.563 50.3081 135.524 51.6142 134.703 52.7434C130.848 55.7502 126.5 54.3217 123.957 52.5394Z" fill="#013088"/>
<path d="M22.6367 63.0234H24.4551V71.8398H22.6367V63.0234Z" fill="#E21931"/>
<path d="M30.5254 65.8693V71.774H28.9805V63.1618H30.457L34.8047 69.0257V63.0938H36.2129V71.842H34.9004L30.5254 65.8693Z" fill="#E21931"/>
<path d="M85.8965 65.8693V71.774H84.3516V63.1618H85.8281L90.1758 69.0257V63.0938H91.584V71.842H90.2715L85.8965 65.8693Z" fill="#E21931"/>
<path d="M40.2852 70.9189L41.1465 69.6128C42.7871 70.6876 43.7031 70.8237 44.7422 70.1026C45.166 69.7489 45.2891 69.123 44.8242 68.7285L41.7891 67.3815C40.3945 66.674 40.0254 65.2319 41.4473 63.6128C42.7324 62.5244 44.3867 62.5108 46.3829 63.4223L46.3008 65.1094C45.1524 64.7013 43.6074 63.9257 42.8418 64.6332C42.2539 65.2455 42.582 65.6945 42.9922 65.9666C44.8926 66.6332 46.4512 67.3679 46.793 68.1434C47.2989 69.6672 46.6016 70.4427 46.1368 71.0686C44.291 72.6196 41.707 71.9121 40.2852 70.9189Z" fill="#E21931"/>
<path d="M54.4239 71.9793C51.0195 71.9793 50.7188 68.9861 50.7188 68.9861V63.0133H52.5781V68.9725C52.5781 68.9725 52.6465 70.4963 54.3692 70.4963C55.8868 70.4963 56.1875 69.1222 56.1875 69.1222V62.9453H57.8555V68.9181C57.8692 68.9181 57.9102 71.9793 54.4239 71.9793Z" fill="#E21931"/>
<path d="M62.3672 62.9609V71.8317H64.2402V68.4031H65.0742L67.4121 71.8589H69.5997L66.9473 68.131C66.9473 68.131 68.7793 67.6004 68.7793 65.8181C68.7793 63.029 65.9903 62.9609 65.9903 62.9609H62.3672ZM64.2266 64.3623H65.7305C65.7305 64.3623 67.0293 64.4575 67.0293 65.7364C67.0293 67.029 65.7031 67.0834 65.7031 67.0834H64.2266V64.3623Z" fill="#E21931"/>
<path d="M75.791 63.0938L72.2227 71.9917H74.1504L74.834 70.1006H78.375L79.0313 71.9509H81.0411L77.5 63.0938H75.791ZM76.584 65.4339L77.9239 68.7536H75.2578L76.584 65.4339Z" fill="#E21931"/>
<path d="M95.7817 67.5976C95.7543 65.135 97.0122 62.931 100.266 62.8221C101.319 62.7813 102.768 63.448 102.768 63.448L102.877 65.1623C102.877 65.1623 101.264 64.2779 100.266 64.3867C98.6391 64.55 97.395 65.2983 97.395 67.6657C97.395 69.2167 98.6255 70.4139 100.157 70.4139C101.196 70.4139 102.454 69.6929 102.454 69.6929L103.055 71.0942C103.055 71.0942 101.469 71.9514 100.211 71.9514C97.8735 71.9378 95.809 70.4412 95.7817 67.5976Z" fill="#E21931"/>
<path d="M107.359 63.0938V71.8012H113.074V70.3318H109.096V67.9917H112.691V66.5223H109.096V64.5631H112.992L113.512 63.0938H107.359Z" fill="#E21931"/>
<path d="M131.914 34.6413L132.174 34.6141C132.188 34.7229 132.215 34.8045 132.256 34.8726C132.297 34.9406 132.379 34.995 132.475 35.0358C132.57 35.0766 132.68 35.1038 132.803 35.1038C132.912 35.1038 133.008 35.0902 133.09 35.063C133.172 35.0358 133.227 34.9814 133.268 34.927C133.309 34.8726 133.322 34.8181 133.322 34.7501C133.322 34.6821 133.309 34.6277 133.268 34.5732C133.227 34.5188 133.172 34.478 133.076 34.4508C133.021 34.4236 132.898 34.3964 132.693 34.3419C132.502 34.3011 132.365 34.2467 132.283 34.2059C132.188 34.1515 132.105 34.0834 132.051 34.0154C131.996 33.9338 131.982 33.8521 131.982 33.7569C131.982 33.6481 132.01 33.5528 132.078 33.4576C132.133 33.3623 132.229 33.2943 132.338 33.2399C132.461 33.1855 132.584 33.1719 132.721 33.1719C132.885 33.1719 133.021 33.1991 133.131 33.2535C133.254 33.3079 133.35 33.376 133.404 33.4712C133.473 33.5664 133.5 33.6753 133.514 33.7977L133.24 33.8113C133.227 33.6753 133.172 33.58 133.09 33.512C133.008 33.444 132.885 33.4032 132.721 33.4032C132.557 33.4032 132.434 33.4304 132.352 33.4984C132.27 33.5664 132.229 33.6345 132.229 33.7161C132.229 33.7977 132.256 33.8521 132.311 33.9066C132.365 33.961 132.502 34.0018 132.734 34.0562C132.967 34.1107 133.117 34.1515 133.199 34.1923C133.322 34.2467 133.418 34.3147 133.473 34.41C133.527 34.4916 133.555 34.6004 133.555 34.7093C133.555 34.8181 133.527 34.927 133.459 35.0222C133.391 35.1175 133.295 35.1991 133.186 35.2535C133.063 35.3079 132.926 35.3351 132.775 35.3351C132.584 35.3351 132.42 35.3079 132.297 35.2535C132.174 35.1991 132.064 35.1175 131.996 35.0086C131.928 34.8998 131.914 34.7909 131.914 34.6413Z" fill="#013088"/>
<path d="M133.98 35.3276V33.2188H134.404L134.91 34.7153C134.951 34.8514 134.992 34.9602 135.006 35.0283C135.033 34.9466 135.074 34.8378 135.115 34.6881L135.621 33.2188H136.004V35.3276H135.73V33.5589L135.115 35.3276H134.855L134.24 33.5317V35.3276H133.98Z" fill="#013088"/>
</g>
<defs>
<clipPath id="clip0_695_33">
<rect width="136" height="72" fill="white"/>
</clipPath>
</defs>
</svg>
