<svg width="170" height="137" viewBox="0 0 170 137" fill="none" xmlns="http://www.w3.org/2000/svg">
<g clip-path="url(#clip0_695_59)">
<path d="M73.1153 63.3434C72.9561 63.1379 72.5466 63.2978 72.5466 63.2978L66.1766 65.6724C65.6761 64.4623 65.1073 63.3206 64.4703 62.2703L66.5406 56.6076C66.5406 56.6076 66.7908 56.0368 66.5633 55.8998C66.3358 55.7628 65.9491 56.1281 65.9491 56.1281L62.1953 59.2106C60.7393 57.6351 59.0103 56.3792 57.0538 55.4659C56.3258 55.1462 55.5523 54.8723 54.7561 54.6439L53.5958 50.1686C53.5958 50.1686 53.5048 49.7119 53.1863 49.7119C52.8906 49.7119 52.7996 50.1458 52.7996 50.1458L52.0488 54.0959C51.2298 53.9817 50.3881 53.9361 49.5236 53.9361C46.7253 53.9361 44.2456 54.4613 42.0616 55.4431C41.1288 55.8541 40.2643 56.3564 39.4453 56.9501C39.3088 57.0414 39.1723 57.1556 39.0358 57.2469C38.2623 55.2376 37.6481 53.6164 37.5343 53.1141C37.9666 52.7259 38.8766 51.2874 39.0813 50.3284C39.3771 48.9812 39.2861 48.3419 38.9676 47.3144C38.7401 46.5609 38.2623 45.8759 38.2851 45.3964C38.3078 45.0539 38.4898 44.8027 38.6491 44.6201C38.5581 44.1177 38.2396 43.9123 37.8528 43.8666C37.5116 43.8209 37.2386 43.9122 36.9201 43.9351C36.8518 43.7981 36.6926 43.8209 36.8063 43.3186C36.9883 42.5422 38.4671 42.1769 39.6728 41.7202C41.1971 41.1266 42.0616 40.0078 42.1071 38.2496C42.1526 36.9481 41.4246 36.0119 40.5373 35.5781C40.3553 36.1033 39.6046 36.7882 39.1041 37.0851C38.6036 37.3591 37.8756 37.4733 37.3751 37.3591C37.4888 36.4001 37.0566 35.6009 36.3513 35.2812C36.1238 35.6922 35.3048 36.2403 34.0536 36.1946C32.8023 36.1489 32.7341 35.8521 30.9596 35.8749C28.4571 35.8749 26.3868 37.3819 26.1366 39.6196C25.9773 41.0581 26.5233 42.2682 26.9328 42.9076C26.6143 43.1359 25.8863 43.8437 25.7498 44.0492C25.5678 43.8437 25.0673 43.5469 24.4758 43.9579C24.6123 44.2776 24.6351 44.6657 24.5213 45.0311C24.4076 45.3964 23.4976 47.1774 23.4066 48.6159C23.2246 51.0362 24.6351 52.6803 25.7953 53.1598C25.5451 53.5479 25.4768 53.9589 25.6588 54.3014C25.7726 54.5298 26.0228 54.7352 26.5233 54.7352C26.2276 55.0549 26.1366 55.5116 26.3186 55.9911C26.5233 56.5162 27.1148 57.2698 27.6381 57.2698C27.6153 57.7036 27.8201 58.7539 27.9338 59.1649C27.7518 59.5074 27.5698 59.7586 27.5926 60.3979C27.6153 61.0601 28.0248 61.5853 28.5481 61.6766C28.6846 61.9963 28.7756 62.3387 28.9576 62.5442C29.1396 62.7497 29.2988 63.0009 29.6856 63.2749C30.0723 63.5261 30.5273 63.7544 31.0278 63.7544C31.5283 63.7544 32.0061 63.7773 32.2336 63.7088C32.2336 63.8686 32.3018 65.2386 32.3473 66.7684C31.0506 70.4217 30.3908 74.6687 30.3908 79.1897C30.3908 87.3412 32.7113 94.5794 37.1248 99.2603C37.1248 99.2603 37.3751 99.5799 38.0803 100.037C38.0803 100.037 39.4681 97.6619 41.5611 94.9676C42.0843 94.2826 42.6986 93.6204 43.3811 92.9811C44.4276 92.0678 45.4286 91.2686 46.3841 90.5608C49.1141 88.7113 52.2536 87.2956 55.1656 86.6791C51.8213 88.3916 49.9331 89.3278 46.8163 92.0221C44.8371 93.7346 41.6748 96.7486 39.5136 100.881C39.9686 101.247 40.5601 101.612 41.2881 101.681C41.7431 101.133 44.0863 96.8171 47.7036 93.3464C55.0063 86.4964 63.6058 84.8981 68.1103 84.9894C68.3606 83.1399 68.4971 81.1991 68.4971 79.1897C68.4971 75.9017 68.1558 72.7964 67.4733 69.9422L72.8423 63.9371C72.9106 63.9371 73.2746 63.5717 73.1153 63.3434Z" fill="#293D70"/>
<path d="M33.1453 60.6452C32.8268 60.4625 31.985 60.0515 31.3025 60.0744C30.5973 60.0972 30.0058 60.2342 29.4598 60.5995C29.2323 60.4397 29.164 60.12 29.3005 59.7547C29.4598 59.3894 29.6645 59.3437 29.6645 59.3437L29.4598 55.9187C29.4598 55.9187 30.4153 55.2337 30.6883 55.1652C30.9385 55.0967 31.075 54.8912 31.075 54.6172C31.5073 54.914 32.1215 55.5534 32.4628 56.0329C32.7813 56.4667 32.9633 56.969 32.986 57.517C33.0088 58.065 33.0088 58.7272 32.9178 59.3894C33.1225 59.572 33.3273 59.7319 33.35 60.0059C33.3728 60.3027 33.259 60.394 33.1453 60.6452Z" fill="white"/>
<path d="M64.1959 71.29C64.1504 70.6278 63.3769 68.824 62.9219 68.4358L71.0209 64.8281L64.1959 71.29Z" fill="white"/>
<path d="M42.0156 57.8438L48.8634 64.0773C48.2036 64.4426 47.2026 65.4473 46.9296 66.2693L42.0156 57.8438Z" fill="white"/>
<path d="M46.0186 70.1927C45.7911 70.5581 45.7001 70.7864 45.6318 71.2202C45.5636 71.6541 45.6091 71.9052 45.6546 72.2706L43.5616 70.8092C43.5843 70.3069 43.4478 69.5077 43.4251 69.0967C43.4251 69.0511 43.4023 68.9826 43.4023 68.9141L46.0186 70.1927Z" fill="white"/>
<path d="M34.4421 70.7898C34.3056 70.5615 33.7141 57.8661 33.6913 57.4323L34.3738 56.93V56.793C33.8733 56.7701 33.3046 56.5875 33.1226 56.2906L32.9406 52.409C32.2581 52.3633 31.5756 52.135 31.3026 51.8838C30.9841 51.5641 30.7338 51.1531 31.0978 50.4453C31.4391 50.6736 32.4173 50.9705 33.2818 50.9705C33.4638 50.9705 33.8506 51.3815 34.0553 51.4728C34.3056 51.5641 34.7151 51.7925 34.9198 51.8838C35.1018 51.9523 35.2156 52.3861 35.2611 52.5231C35.3066 52.683 41.5628 68.986 41.6766 69.1686C41.7903 69.3513 42.1543 72.0913 42.1771 72.2968C42.1998 72.5023 43.1326 74.6943 43.3146 74.8998C42.4728 74.877 41.1306 75.3565 39.9931 76.4525C38.9011 77.5256 37.9228 79.8775 37.7181 80.9506C37.6498 80.4255 34.5786 71.041 34.4421 70.7898Z" fill="white"/>
<path d="M42.4034 86.4057C42.1304 88.9174 41.5162 91.0866 40.6062 92.6392C40.0147 93.6439 38.3767 95.6761 37.7852 96.4296C38.3994 95.1737 38.8999 92.1597 38.8544 89.8079C38.8317 88.2781 38.3767 84.9216 38.7634 82.6839C39.1957 80.2864 39.8782 78.9392 41.4707 77.4779C42.2897 76.7244 43.9504 75.7654 46.3392 76.4047L48.2729 80.0352C47.2492 79.8297 45.8842 80.0124 44.9742 80.7202C43.2679 82.0446 42.6992 83.8027 42.4034 86.4057Z" fill="white"/>
<path d="M42.5859 91.3346C43.0637 90.2842 43.6779 87.2702 43.8372 86.2427C44.0647 84.9412 44.2694 83.0689 45.7937 81.7902C46.5444 81.1737 47.7957 81.0824 48.2734 81.2194L50.4574 85.6719C50.6394 86.1514 51.2992 86.3112 51.7087 86.2884C49.7067 86.9734 44.5652 89.4166 42.5859 91.3346Z" fill="white"/>
<path d="M61.1277 77.1368C60.7864 77.6848 60.9002 78.21 61.1049 78.5753C61.3324 78.9863 62.4699 81.1326 62.4699 81.1326C62.8339 82.0916 63.1069 82.594 63.4709 83.2105C64.0852 83.2105 64.7677 83.1876 65.4957 83.2105C64.7222 81.498 62.9932 78.1871 62.9932 78.1871L62.8567 75.5156C62.3334 75.8353 61.4689 76.5888 61.1277 77.1368Z" fill="white"/>
<path d="M51.8438 62.9546C52.7083 62.7948 54.642 62.9774 55.279 63.2971L53.2998 52.0859L51.8438 62.9546Z" fill="white"/>
<path d="M35.2611 52.5466C35.2156 52.3868 35.1018 51.9758 34.9198 51.9073C34.7151 51.8159 34.3056 51.5876 34.0553 51.4962C33.8278 51.4049 33.4638 50.9939 33.2818 50.9939C32.4173 50.9939 31.4391 50.6971 31.0978 50.4688C30.7338 51.1766 30.9841 51.5648 31.3026 51.9073C31.5528 52.1584 32.2581 52.3868 32.9406 52.4324L33.1226 56.3141C33.3046 56.6109 33.8733 56.7936 34.3738 56.8164V56.9534L33.6913 57.4558C33.7141 57.8896 34.3056 70.5849 34.4421 70.8132C34.5786 71.0416 37.6271 80.4489 37.7181 81.0197C37.9456 79.9466 38.9011 77.5719 39.9931 76.5216C41.1078 75.4256 42.4728 74.9461 43.3146 74.9689C43.1326 74.7634 42.1998 72.5714 42.1771 72.3659C42.1543 72.1604 41.7903 69.4204 41.6766 69.2378C41.5856 69.0323 35.3066 52.7064 35.2611 52.5466Z" fill="white"/>
<path d="M31.2567 49.4385C33.0312 49.4385 33.873 50.1692 34.2825 50.5802C34.328 49.9865 34.237 49.4614 33.691 49.0047C33.236 48.6394 32.417 48.2969 31.1657 48.2969C30.324 48.2969 29.505 48.548 28.9817 48.9819C28.504 49.3929 28.4357 49.8495 28.5267 50.5345C28.686 50.0322 29.8007 49.4385 31.2567 49.4385Z" fill="white"/>
<path d="M28.0929 40.1222C28.0474 40.8072 28.2294 41.515 28.5479 41.926C28.7299 42.1544 29.1394 42.611 29.4579 42.611C29.8901 42.5882 30.3224 41.7434 31.3461 41.7662C32.0286 41.789 32.4609 42.748 33.0296 42.7937C33.4619 42.8165 33.7121 42.3827 34.1444 42.337C34.5311 42.2914 34.6676 42.4969 34.8951 42.7252C35.0544 42.3599 35.2819 42.1087 35.8506 41.6749C36.5559 41.1497 38.9446 40.6474 39.9684 39.734C40.4689 39.2774 40.5826 38.4325 40.4234 37.8617C40.0366 38.4097 38.9674 38.9805 37.9436 39.0262C37.4204 39.049 36.1691 38.8207 35.7369 38.5924C35.9644 38.2042 36.0326 37.7704 35.8506 37.3594C35.5094 37.6105 34.0534 37.7704 33.4846 37.7704C32.9159 37.7704 31.8011 37.542 30.9366 37.5877C29.0484 37.679 28.1611 39.0262 28.0929 40.1222Z" fill="white"/>
<path d="M31.3707 46.0621C35.4884 46.1306 37.3312 48.0486 37.3994 49.6013C37.6042 49.1218 37.5814 48.688 37.5587 48.1628C37.5359 47.7518 36.9217 46.5645 36.8762 46.1763C36.8534 45.7881 36.9444 45.5141 37.0354 45.1488C36.7852 45.1945 35.8752 45.5598 35.4657 45.263C35.0562 44.9205 35.3292 44.0985 34.7832 43.8701C34.2372 43.6646 33.3727 44.304 32.8267 44.2355C32.2807 44.1441 31.8029 43.3906 31.2342 43.3906C30.6654 43.3906 30.3697 44.0985 29.6644 44.2583C29.1184 44.3725 28.4587 44.0528 28.1402 44.0756C27.7989 44.0985 27.5714 44.3725 27.4122 44.715C27.2529 45.0575 27.1392 45.1945 26.7069 45.3086C26.3884 45.4 25.9107 45.1031 25.6604 45.1488C25.8424 45.3315 25.9334 46.085 25.7742 46.496C25.5694 47.044 25.1144 47.6148 25.0689 48.2998C25.0234 48.8935 25.2282 49.1903 25.3874 49.6241C25.3192 47.4321 27.7762 45.9936 31.3707 46.0621Z" fill="white"/>
<path d="M28.7744 53.9551C28.4787 54.0008 27.8872 54.4803 27.5914 54.9598C27.6824 55.2795 28.0237 56.0101 28.3422 56.2156C28.4104 55.8731 28.7971 55.3023 28.9791 55.1881C29.2294 55.0055 29.5024 54.8685 29.7072 54.7771C29.9119 54.663 29.9802 54.5716 29.9802 54.3205C29.9802 54.0921 29.9574 53.978 29.8437 53.7496C30.0484 53.7268 30.4351 53.7496 30.5716 53.567C30.7081 53.3843 30.7537 53.156 30.7537 52.9048C30.7537 52.6765 30.6399 52.608 30.4124 52.5851C30.1849 52.5623 29.5024 52.5395 29.1612 52.5623C29.1612 52.5623 29.6844 52.2883 29.8437 52.2198C30.0029 52.1513 30.0484 51.9915 30.0712 51.8545C30.0939 51.7175 30.0939 51.4206 30.0257 51.0781C29.2522 51.101 27.8644 51.8088 27.5004 52.1285L27.7962 52.8363L27.2729 52.8135C27.2046 53.1788 27.2502 53.7268 27.4094 54.0236C27.8872 53.9551 28.4332 53.9323 28.7744 53.9551Z" fill="white"/>
<path d="M62.4219 70.3053C62.3309 69.803 61.0569 68.2732 58.8956 66.652C57.2121 65.3733 54.7324 64.0947 52.7076 64.1175C49.2724 64.1403 47.8619 66.4922 47.5889 67.748C47.4296 68.5015 47.4751 69.3007 47.6344 69.7573C47.0884 70.2368 46.8836 70.6022 46.7699 71.1502C46.7016 71.5383 46.7699 72.0863 47.1111 72.4288C47.0656 71.9265 47.4069 71.3328 47.7026 70.9447C48.0211 70.5108 48.5444 70.351 48.9994 70.0542L49.0676 70.9903C48.6126 71.2415 48.0666 71.7895 48.0439 72.0863L48.0894 73.639L49.2724 72.9312L49.4999 73.3878L49.0676 76.1278L49.7274 76.0137L50.9331 76.516L49.7729 77.4978V77.886C49.7729 77.886 49.9549 77.6348 50.3644 77.6577C50.7739 77.6805 51.8431 78.16 51.8431 78.16L51.7976 78.3883H51.3199C50.8421 78.3883 49.7274 78.3883 49.7274 78.3883C49.6364 78.6623 49.8866 78.8678 50.0459 78.982C50.3189 78.9135 50.5919 78.7765 50.7511 78.7765C50.9104 78.7765 51.2744 78.8678 51.5701 78.9135L51.2061 79.4158C51.2061 79.4158 51.0241 79.5528 50.6601 79.4843C50.4781 79.4387 50.2734 79.7127 50.2734 79.941C50.2734 80.1693 50.4326 80.763 50.4326 80.763C50.6146 81.6535 51.5246 81.4708 51.6384 81.448C52.2071 81.4023 54.0726 80.7173 54.0726 80.7173L52.2981 83.229L53.0716 85.9233C54.2546 85.4438 57.7581 84.188 61.5801 83.5487C61.1706 82.8637 61.1024 82.5668 60.5791 81.5393L58.6226 77.0412L58.8956 76.379C59.3279 76.5388 59.9876 76.2192 60.4199 75.8767C60.8521 75.5342 61.3526 74.8948 61.5574 74.5067C61.2844 74.3468 61.0569 74.3925 60.8066 74.5523C60.5791 74.7122 60.3971 75.009 60.0559 74.872C59.7146 74.7122 59.8739 74.324 59.9194 73.9815C59.9649 73.639 59.5099 73.6162 59.2141 73.8902C58.8956 74.1642 58.2359 74.05 57.8036 73.6162C57.3714 73.1823 55.3011 71.4698 54.5731 71.036C53.5039 70.4195 52.0706 70.2597 51.0241 70.4652C50.4099 70.5793 49.9776 70.8533 49.7274 70.7392L48.9539 69.5518L49.0676 69.4833C49.3406 69.5975 49.5909 69.8258 49.9549 69.7117C50.2961 69.5975 51.4336 69.3463 52.4574 69.3235C54.0271 69.3007 55.9154 69.8715 56.7571 70.2368C56.8026 71.2415 58.8274 72.543 59.7601 72.6572C60.5336 72.7485 61.0114 72.543 61.4664 72.269L59.4871 70.5108L60.5336 69.1637C60.5336 69.1637 62.2171 70.762 62.4446 71.0817C62.5356 70.8305 62.4674 70.5337 62.4219 70.3053ZM50.4554 72.3375C50.4554 72.3375 51.3199 71.8352 52.1161 71.6753C53.2991 71.4242 54.6186 72.132 55.5514 72.8855L55.3694 73.1595L54.0271 73.4792C53.7769 73.2508 53.2764 73.1367 52.7304 73.1595C52.2526 73.1823 51.8659 73.365 51.8659 73.365L52.1389 73.7988L51.5246 73.9587C51.2516 73.6162 50.8194 73.1823 50.4326 73.0682V72.3375H50.4554ZM48.4079 69.255C48.0666 68.0677 48.9994 66.9032 49.4316 66.4693L50.0914 67.9992C49.5909 68.2732 48.7946 68.8668 48.4079 69.255ZM54.5731 67.9307C53.9589 67.4968 51.8886 67.5882 51.0241 67.7708L50.4099 65.967C50.8876 65.6245 51.7749 65.3733 52.5939 65.3733C53.4129 65.3733 54.3001 65.5788 54.9371 65.8757L54.5731 67.9307ZM58.6226 69.7573C57.7581 69.2093 56.0974 68.3873 55.5741 68.2275L56.3249 66.3095C56.9391 66.6292 59.2596 68.022 59.6009 68.3873L58.6226 69.7573Z" fill="white"/>
<path d="M58.375 64.6697C59.1485 64.9437 60.7865 66.3137 61.1733 66.6334L65.3138 57.7969L58.375 64.6697Z" fill="white"/>
<path d="M83.901 69.828C83.901 71.198 84.4697 71.609 86.4945 71.609C88.5192 71.609 89.452 70.9925 90.7942 68.2296H91.272L90.7942 72.5451H78.168V72.0656C80.0562 71.5861 80.261 71.1523 80.261 69.3713V58.7538C80.261 57.2696 79.897 56.8586 78.168 56.4248V55.9453H85.994V56.4248C84.356 56.8586 83.901 57.2011 83.901 58.6396V69.828Z" fill="#727679"/>
<path d="M96.5946 70.2394C96.5946 71.3126 97.1406 71.9063 98.3236 72.0661V72.5456H91.6124V72.0661C93.0456 71.7921 93.3869 71.3811 93.3869 70.0339V64.3256C93.3869 63.0241 93.0229 62.6588 91.4531 62.3391V61.8596L96.0941 61.4714H96.5719V70.2394H96.5946ZM95.0021 54.7812C96.0259 54.7812 96.8449 55.6033 96.8449 56.6308C96.8449 57.6583 96.0259 58.5031 95.0021 58.5031C93.9784 58.5031 93.1366 57.6583 93.1366 56.6308C93.1366 55.6033 93.9784 54.7812 95.0021 54.7812Z" fill="#727679"/>
<path d="M103.535 64.1429C104.604 63.1383 105.173 62.8642 106.014 62.8642C107.903 62.8642 109.177 64.6681 109.177 67.2939C109.177 70.7874 107.584 72.2031 105.218 72.2031C103.944 72.2031 103.512 71.6323 103.512 70.4221V64.1429H103.535ZM103.535 54.7812H103.057L98.7344 55.1009V55.5804C99.7354 55.7403 100.35 56.2654 100.35 57.1788V72.5456C101.965 72.8653 103.535 72.9794 105.559 72.9794C110.769 72.9794 112.726 70.2622 112.726 66.9742C112.726 63.8461 110.519 61.4486 107.652 61.4486C106.128 61.4486 104.831 62.0651 103.557 63.4123V54.7812H103.535Z" fill="#727679"/>
<path d="M117.411 65.5775C117.502 63.5454 118.367 62.1754 119.663 62.1754C120.96 62.1754 121.916 63.591 122.029 65.5775H117.411ZM125.487 66.2397C125.101 63.2942 122.917 61.4219 119.891 61.4219C116.524 61.4219 113.953 63.9335 113.953 67.2672C113.953 70.5324 116.433 72.9755 119.777 72.9755C122.348 72.9755 124.532 71.5599 125.487 69.2537H125.01C123.986 70.8064 122.757 71.5827 121.188 71.5827C119.208 71.5827 117.229 69.756 117.411 66.2397H125.487Z" fill="#727679"/>
<path d="M135.724 65.5619C134.791 64.6486 134.063 64.1691 133.312 64.1691C132.357 64.1691 131.765 64.5573 130.946 65.6989V70.0601C130.946 71.3387 131.196 71.7269 132.743 72.0466V72.5261H125.964V72.0466C127.374 71.7041 127.738 71.2702 127.738 70.0601V64.4203C127.738 63.0503 127.147 62.4337 125.805 62.3196V61.8401L130.468 61.4062H130.946V64.8084H130.992C132.038 62.4794 133.198 61.4062 134.518 61.4062C135.223 61.4062 135.906 61.7259 136.406 62.3196L135.724 65.5619Z" fill="#727679"/>
<path d="M153.72 61.8353V62.3149C155.085 62.5889 155.381 63.4565 154.425 65.717L152.947 69.142L150.694 64.4612C150.035 63.0912 150.035 62.4747 151.263 62.292V61.8125H145.098H144.916H141.822V57.6797H141.276C139.774 59.5977 138.023 61.3102 136.703 62.1322V62.6802H138.614V69.553C138.614 71.9962 140.229 72.9552 142.231 72.9552C143.824 72.9552 144.87 72.3844 145.644 71.06L145.303 70.7403C144.802 71.334 144.302 71.5852 143.756 71.5852C142.254 71.5852 141.799 70.5577 141.799 68.8224V62.6802H144.666C146.213 62.6802 146.668 63.251 147.35 64.6895L151.24 72.9323C149.944 76.4487 148.806 77.8644 146.827 77.8644C146.395 77.8644 146.053 77.8415 145.394 77.6132L144.757 80.8555C145.143 80.924 145.371 80.924 145.667 80.924C147.873 80.924 149.079 79.9878 150.217 77.3848L155.586 65.0777C156.473 63.0912 156.791 62.703 158.156 62.3149V61.8353H153.72Z" fill="#727679"/>
<path d="M99.0291 91.7745C99.2339 93.213 99.9391 94.035 101.554 94.3547V94.8342H93.3871V94.3547C95.1844 93.898 95.5029 92.8477 95.1844 90.7014L93.8194 81.2255H93.7739L88.4049 94.8342H87.8134L82.4899 81.2255H82.4444L81.0111 90.9754C80.7381 92.8934 81.1021 94.2177 82.9676 94.3547V94.8342H76.9844V94.3547C78.7589 94.2634 79.5324 93.2587 79.9191 90.7014L81.5571 79.8555C80.8974 79.1705 80.0101 78.7367 79.1456 78.7139V78.2344H85.1061L89.4286 89.1715L93.7966 78.2344H99.3931V78.7139C97.6869 79.0335 97.3001 79.8784 97.5276 81.4082L99.0291 91.7745Z" fill="#727679"/>
<path d="M102.852 86.4732C102.852 85.2858 102.465 84.852 101.191 84.6237V84.1442L105.582 83.7103H106.06V91.5878C106.06 92.8665 106.879 93.4602 108.039 93.4602C109.108 93.4602 109.768 93.0035 110.701 91.5193V86.1992C110.701 85.3087 110.132 84.8063 109.04 84.6008V84.1213L113.431 83.6875H113.909V92.2043C113.909 93.62 114.182 93.9625 115.615 94.3278V94.8073L110.724 95.2412V92.6382H110.678C109.495 94.442 108.153 95.2412 106.447 95.2412C104.24 95.2412 102.92 94.031 102.92 91.976V86.4732H102.852Z" fill="#727679"/>
<path d="M118.024 85.0161H116.113V84.4681C117.433 83.6461 119.185 81.9336 120.686 80.0156H121.232V84.1485H124.713V84.9933H121.209V91.1583C121.209 92.8936 121.664 93.9211 123.166 93.9211C123.735 93.9211 124.212 93.67 124.713 93.0763L125.054 93.396C124.258 94.7203 123.211 95.2911 121.642 95.2911C119.64 95.2911 118.024 94.3321 118.024 91.889V85.0161Z" fill="#727679"/>
<path d="M126.786 86.4732C126.786 85.2858 126.399 84.852 125.125 84.6237V84.1442L129.516 83.7103H129.994V91.5878C129.994 92.8665 130.813 93.4602 131.973 93.4602C133.042 93.4602 133.702 93.0035 134.634 91.5193V86.1992C134.634 85.3087 134.066 84.8063 132.974 84.6008V84.1213L137.342 83.6875H137.819V92.2043C137.819 93.62 138.092 93.9625 139.526 94.3278V94.8073L134.634 95.2412V92.6382H134.589C133.406 94.442 132.064 95.2412 130.358 95.2412C128.151 95.2412 126.831 94.031 126.831 91.976V86.4732H126.786Z" fill="#727679"/>
<path d="M146.805 93.0047C146.077 93.7354 145.44 94.1235 144.803 94.1235C143.916 94.1235 143.325 93.3472 143.325 92.2055C143.325 90.767 144.144 90.1049 146.805 88.9632V93.0047ZM150.013 87.7302C150.013 84.7847 147.602 83.7344 145.327 83.7344C142.847 83.7344 141.118 85.0815 140.549 87.3649H140.981C141.664 86.1775 142.733 85.5839 144.166 85.5839C146.077 85.5839 146.828 86.4972 146.828 88.3924C144.235 89.3514 139.98 89.5797 139.98 92.4795C139.98 94.0322 141.414 95.288 143.165 95.288C144.462 95.288 145.463 94.9684 146.532 94.0094L146.783 93.781C147.306 94.8542 148.057 95.288 149.353 95.288C150.9 95.288 151.833 94.5574 151.947 93.2102H151.492C151.378 93.8724 151.105 94.192 150.65 94.192C150.172 94.192 149.99 93.781 149.99 92.7764V87.7302H150.013Z" fill="#727679"/>
<path d="M154.173 80.0086C154.173 78.5016 153.695 77.9536 152.171 77.8851V77.4056L156.88 77.0859H157.358V92.2244C157.358 93.6401 157.677 93.9826 159.246 94.3479V94.8274H152.148V94.3479C153.695 94.0968 154.15 93.5716 154.15 92.2244V80.0086H154.173Z" fill="#727679"/>
<path d="M159.656 92.7968H160.498V94.966H160.839V92.7968H161.681V92.5H159.679V92.7968H159.656Z" fill="#727679"/>
<path d="M164.232 94.9666V93.5053C164.232 93.4368 164.232 93.1171 164.232 92.8888L163.55 94.9666H163.231L162.549 92.9116C162.549 93.1399 162.549 93.4596 162.549 93.5281V94.9894H162.23V92.5234H162.708L163.413 94.6013L164.119 92.5234H164.596V94.9894H164.232V94.9666Z" fill="#727679"/>
</g>
<defs>
<clipPath id="clip0_695_59">
<rect width="182" height="137" fill="white"/>
</clipPath>
</defs>
</svg>
