<svg xmlns="http://www.w3.org/2000/svg" width="92" height="92" fill="none"><path stroke="#001489" stroke-linecap="round" stroke-linejoin="round" stroke-miterlimit="10" stroke-width="2.5" d="M8.962 31.472v-5.101m-.002 16.4v-5.102M90 63.575v15.327H67.463M74.93 42.77h7.915A7.154 7.154 0 0 1 90 49.924v7.454M62.142 42.77h-6.557m17.244-1.43v-4.47m0 4.47-4.292 4.293m4.292-4.292 2.102 1.428-1.612 7.646-4.782-4.782m-4.293-4.292v-4.472m0 4.472 4.293 4.292m-4.293-4.292-2.102 1.428 1.613 7.646 4.782-4.782M54.034 13.717v-.27C54.034 7.125 59.16 2 65.481 2h6.11c6.323 0 11.447 5.125 11.447 11.447v7.092m-24.616-1.967.665-2.245a3.29 3.29 0 0 1 3.157-2.358H74.83c1.458 0 2.742.959 3.157 2.358l1.193 4.03v6.675c0 5.927-4.804 10.731-10.732 10.731-2.477 0-4.758-.838-6.573-2.248m17.305-8.483h1.788a3.577 3.577 0 1 0 0-7.154c-.652 0-1.262.177-1.788.482m3.667 37.255v21.287m-55.09-41.993v5.86h5.724a5.72 5.72 0 0 1-1.676 4.049L27.51 51.11a5.7 5.7 0 0 1-4.048 1.676 5.7 5.7 0 0 1-4.047-1.676l-4.293-4.292a5.72 5.72 0 0 1-1.676-4.048m0 0h5.724v-5.94m-5.724 5.94H9.155A7.155 7.155 0 0 0 2 49.924v28.978h22.537M36.415 42.77H33.48M8.96 20.54v-4.038C8.961 8.492 15.454 2 23.464 2a14.45 14.45 0 0 1 10.254 4.248 14.46 14.46 0 0 1 4.114 8.274m-25.018 5.835h4.976c2.772 0 5.43-1.118 7.369-3.102l2.245-2.295a3.28 3.28 0 0 1 2.352-.991c1.457 0 2.742.959 3.156 2.358l.623 2.101M12.82 27.032h-1.788a3.577 3.577 0 1 1 0-7.154c.652 0 1.262.177 1.788.482m0 6.672c0 5.927 4.804 10.732 10.732 10.732a10.68 10.68 0 0 0 6.573-2.249M12.82 27.032v-6.675M9.155 57.615v21.287M52.394 53.86h7.914a7.154 7.154 0 0 1 7.155 7.153V90H24.537V75.39m0-6.197v-8.18a7.154 7.154 0 0 1 7.155-7.153h7.914m10.687-1.43v-4.47m0 4.471L46 56.723m4.293-4.293 2.101 1.429-1.612 7.646L46 56.723m-4.293-4.293v-4.47m0 4.471L46 56.723m-4.293-4.293-2.101 1.429 1.612 7.646L46 56.723M31.498 31.509v-6.377c0-6.655 5.396-12.051 12.052-12.051h7.905a5.55 5.55 0 0 1 5.187 3.577l.422.391a10.73 10.73 0 0 1 3.438 7.872v6.707m-25.33-.182h.007m0 0c10.717 0 13.892-4.582 13.892-4.582 0 .63-.161 1.159-.367 1.577-.245.501.174 1.08.728 1.01a11.84 11.84 0 0 0 5.318-2.061l1.892 4.056h.007m-21.47 0v6.675m21.463 0h1.789a3.577 3.577 0 1 0 0-7.154 3.56 3.56 0 0 0-1.789.482m0 6.672c0 5.927-4.804 10.732-10.731 10.732s-10.732-4.805-10.732-10.732m21.463 0v-6.675M35.18 38.12h-1.79a3.577 3.577 0 1 1 0-7.154 3.56 3.56 0 0 1 1.789.482m12.253 32.78 2.86 20.926L46 90l-4.293-4.845 2.86-20.925m2.865 0h-2.864m2.864 0 2.415-3.643m-5.28 3.643-2.414-3.643m18.156 8.117V90M31.69 68.704V90"/></svg>