<svg xmlns="http://www.w3.org/2000/svg" width="92" height="92" fill="none"><path stroke="#001489" stroke-linecap="round" stroke-linejoin="round" stroke-miterlimit="10" stroke-width="2.5" d="M43.36 7.065h10.789M43.36 11.82h10.789m-37.81 44.99v3.486a2.865 2.865 0 0 0 2.86 2.867c.79 0 1.506-.32 2.023-.84.52-.518.84-1.236.84-2.027m0 0V58.31m0 1.986a2.865 2.865 0 0 0 2.861 2.868c.79 0 1.506-.321 2.023-.841a2.86 2.86 0 0 0 .839-2.027v-3.613M22.06 58.31c6.255-.046 11.257-5.241 11.257-11.508V32.675c0-3.124-1.257-5.953-3.292-8.007a8.977 8.977 0 0 1-12.4 3.886c-3.113-1.73-6.965.46-6.994 4.027v14.364c0 6.306 5.125 11.413 11.43 11.365m2.775 4.852v.88c0 .79-.32 1.508-.839 2.026-.517.52-1.233.84-2.023.84m0 0a2.865 2.865 0 0 1-2.861-2.866v-.88m2.861 3.747a2.75 2.75 0 0 0-2.75 2.755v1.567m2.75-4.322c.76 0 1.447.308 1.945.807.5.499.807 1.187.807 1.948v1.567m-15.074 0v-4.407c0-4.583 3.006-8.46 7.147-9.764m10.33-.008a10.235 10.235 0 0 1 7.17 9.772v4.406M7.027 37.991V26.57c0-2.177.61-4.21 1.671-5.936m3.731-3.737a11.25 11.25 0 0 1 5.92-1.675c4.013 0 7.535 2.092 9.546 5.245a4.95 4.95 0 0 1 4.275-2.461 4.96 4.96 0 0 1 4.954 4.963V38.08M10.63 45.556H8.501a3.92 3.92 0 0 1-3.918-3.924A3.92 3.92 0 0 1 8.5 37.705h2.13m22.688 0h2.13a3.92 3.92 0 0 1 3.918 3.927 3.91 3.91 0 0 1-1.147 2.775c-.71.71-1.69 1.149-2.771 1.149h-2.13m33.932 14.322a10.235 10.235 0 0 0-6.909 9.683v6.267a3.09 3.09 0 0 1-3.084 3.09 3.09 3.09 0 0 1-3.084-3.09v-6.827c0-2.827-2.295-5.127-5.116-5.127m11.284 20.539V90H8.153V77.94M84.284 65.82a10.2 10.2 0 0 1 .705 3.742V90H56.813m4.51-50.69v10.373c0 4.312 2.396 8.064 5.928 9.99m9.937 6.148H90V33.703c0-7.85-6.351-14.215-14.188-14.215h-2.781c-7.836 0-14.187 6.364-14.187 14.215v5.606h8.407v26.512h4.636m-23.734 5.41H4.658A2.66 2.66 0 0 0 2 73.894v1.384a2.66 2.66 0 0 0 2.658 2.663H48.4m11.941-6.71h-6.169m5.333 6.71H55.01m11.353-8.38v6.268c0 5.03-4.084 9.122-9.104 9.122s-9.104-4.092-9.104-9.122v-5.923m0 0h-1.406a3.013 3.013 0 0 1-3.01-3.016 3.013 3.013 0 0 1 3.01-3.016h2.31m-.904 6.032h6.02m-5.116-6.032 1.926-4.949M43.164 2H59.71a4.523 4.523 0 0 1 4.518 4.528v9.949c0 2.5-2.023 4.528-4.518 4.528h-6.552l-4.722 4.731c-1.27 1.273-3.44.371-3.44-1.428v-3.303h-1.83a4.523 4.523 0 0 1-4.52-4.528v-9.95c0-2.5 2.024-4.527 4.52-4.527"/></svg>