<svg xmlns="http://www.w3.org/2000/svg" width="92" height="92" fill="none"><path stroke="#001489" stroke-linecap="round" stroke-linejoin="round" stroke-miterlimit="10" stroke-width="2.5" d="m72.295 58.174-4.016-6.56m5.804-3.385 3.92 6.405M73.297 7.24a25.8 25.8 0 0 1 6.445 7.125c7.457 12.182 3.626 28.103-8.557 35.56-6.448 3.946-13.943 4.73-20.677 2.788m-9.921-5.433a25.9 25.9 0 0 1-4.961-5.913C28.169 29.185 32 13.264 44.183 5.807c7.614-4.66 16.688-4.91 24.243-1.47m2.46 45.765v-3.39c0-5.108-2.9-9.538-7.144-11.733m-12.115 0a13.2 13.2 0 0 0-7.145 11.733v.804m11.355-5.588-2.073 8.006a.94.94 0 0 0 .021.54l1.073 3.1m5.652-.001 1.075-3.104a.94.94 0 0 0 .025-.53l-1.97-8m.914-4.818v3.212a1.87 1.87 0 0 1-1.87 1.87H56.81a1.87 1.87 0 0 1-1.87-1.87v-3.212m11.421-17.996v9.643a8.678 8.678 0 0 1-17.356 0V24.2M27.51 59.725q.12-.69.12-1.416V41.19c0-6.863-5.564-12.428-12.427-12.428-6.864 0-12.429 5.565-12.429 12.428v17.12q0 .696.112 1.361m6.243 11.997H5.538A3.54 3.54 0 0 1 2 68.13v-3.323c0-5.182 2.985-9.666 7.329-11.827m11.746 0a13.2 13.2 0 0 1 7.33 11.827v3.323a3.54 3.54 0 0 1-3.538 3.537h-9.665M9.995 54.06l-.024 6.142a1.24 1.24 0 0 0 1.958 1.014l2.555-1.82a1.24 1.24 0 0 1 1.437 0l2.555 1.82a1.24 1.24 0 0 0 1.958-1.014l-.024-6.142m28.107 17.346a13.2 13.2 0 0 1 7.144 11.733v3.324A3.54 3.54 0 0 1 52.123 90h-19.33a3.54 3.54 0 0 1-3.537-3.537v-3.324c0-5.107 2.9-9.537 7.144-11.733m4.148 6.948-2.073 8.007a.94.94 0 0 0 .021.54L39.57 90h5.653l1.075-3.104a.93.93 0 0 0 .024-.53l-1.97-8m.914-4.818v3.212a1.87 1.87 0 0 1-1.87 1.87h-1.873a1.87 1.87 0 0 1-1.87-1.87v-3.212m11.485-12.92v4.567a8.678 8.678 0 0 1-17.356 0v-4.567m15.224-36.267h8.88a9.475 9.475 0 0 0 9.475-9.475 4.034 4.034 0 0 0-4.034-4.034H57.94c-4.934 0-8.934 4-8.934 8.934zm38.366 52.03a5.5 5.5 0 0 1-7.56-1.819l-7.07-11.568a5.499 5.499 0 0 1 9.38-5.741l7.07 11.568a5.5 5.5 0 0 1-1.82 7.56m-72.17-37.144a4.82 4.82 0 0 1-3.906 1.993H9.163a1.66 1.66 0 0 0-1.659 1.659v5.107a7.698 7.698 0 0 0 15.397 0v-5.107a1.66 1.66 0 0 0-1.659-1.659H19.11a4.82 4.82 0 0 1-3.907-1.993m18.579 21.542 1.834-2.964a3.303 3.303 0 0 1 4.375-1.17c1.43.58 3.507.58 4.938 0a3.303 3.303 0 0 1 4.374 1.17l1.835 2.964v-4.832a8.678 8.678 0 0 0-17.356 0z"/></svg>