<svg xmlns="http://www.w3.org/2000/svg" width="101" height="92" fill="none"><path stroke="#001489" stroke-linecap="round" stroke-linejoin="round" stroke-miterlimit="10" stroke-width="2.5" d="M11.186 81.428h11.215M11.186 71.292h11.215M11.186 61.156h11.215M30.74 90H2.846A.846.846 0 0 1 2 89.153V53.431c0-.468.379-.846.846-.846H30.74c.467 0 .845.378.845.846v9.164m37.564-38.64h-7.493m-4.713 27.234v5.425c0 .354.288.643.643.643h17.216m12.52-33.302h11.562c.355 0 .644.288.644.642v32.017a.644.644 0 0 1-.644.643H81.42m-9.112-8.485v-2.2m6.572 2.2v-5.625m6.572 5.625v-9.266m0-7.066-13.144 7.066m-12.5 47.838v1.625c0 .57-.462 1.031-1.031 1.031H30.27c-.57 0-1.033-.46-1.033-1.031V67c0-2.943 2.39-5.313 5.336-5.313h8.809m9.492 0h5.903c.663 0 1.3.267 1.79.716l10.025 9.244 4.1-14.071m0 0a3.56 3.56 0 0 1 4.414-2.42 3.555 3.555 0 0 1 2.424 4.407m-6.837-1.987-1.277 4.378 6.837 1.988 1.277-4.379m0 0-5.29 18.141c-.933 3.2-4.91 4.304-7.361 2.044l-9.07-8.364v9.101m3.293-43.112c.512-.94.804-2.02.804-3.167v-4.588c0-4.564-3.707-8.264-8.277-8.264h-6.542a4.06 4.06 0 0 1-2.461-.833l-4.751-3.631c-1.04-.796-2.541-.055-2.541 1.254v1.674c0 .192-.22.3-.373.184l-4.072-3.112c-1.04-.796-2.541-.055-2.541 1.254v13.618c0 2.005.65 3.855 1.752 5.356m15.962 27.748 2.337 12.54a.86.86 0 0 1-.23.759l-3.42 3.53a.865.865 0 0 1-1.242 0l-3.42-3.53a.86.86 0 0 1-.23-.759l2.337-12.54m6.68-10.098v7.092a1.69 1.69 0 0 1-.656 1.335l-3.053 2.365a1.696 1.696 0 0 1-2.074 0l-3.054-2.365a1.69 1.69 0 0 1-.655-1.335v-7.092m-5.604-10.162h-3.013c-2.254 0-4.081-1.687-4.081-3.77 0-2.081 1.827-3.769 4.081-3.769h3.013m20.7 0h3.013c2.254 0 4.081 1.688 4.081 3.769 0 2.083-1.827 3.77-4.081 3.77h-3.013M36.421 90V74.032m33.623-.51 2.342-8.033M68.643 6.285a12.8 12.8 0 0 0-3.276 8.568c0 7.098 5.762 12.853 12.87 12.853s12.87-5.755 12.87-12.853C91.106 7.754 85.343 2 78.236 2c-1.306 0-2.567.194-3.755.556M16.794 43.394v-6.327M9.113 52.585v-8.134c0-.583.474-1.057 1.058-1.057h13.245c.584 0 1.058.474 1.058 1.057v8.134zm28.664-22.21v15.559c0 5.395 4.38 9.768 9.782 9.768h1.138c5.402 0 9.781-4.373 9.781-9.768v-9.556a6.693 6.693 0 0 0-6.697-6.689H38.465a.687.687 0 0 0-.688.687m36.784-20.42v9.795a.823.823 0 0 0 1.255.7l7.958-4.897a.822.822 0 0 0 0-1.4l-7.958-4.897a.823.823 0 0 0-1.255.7"/></svg>