<svg xmlns="http://www.w3.org/2000/svg" width="93" height="92" fill="none"><path stroke="#001489" stroke-linecap="round" stroke-linejoin="round" stroke-miterlimit="10" stroke-width="2.5" d="M43.931 27.579c0 9.24-7.49 16.73-16.73 16.73m16.73-16.73c0-9.24-7.49-16.73-16.73-16.73m16.73 16.73H10.472m16.73 16.73c-9.24 0-16.73-7.49-16.73-16.73m16.73 16.73v-33.46m-16.73 16.73c0-9.24 7.49-16.73 16.73-16.73m-5.207 32.632c-2.27-4.366-3.625-9.892-3.625-15.902s1.355-11.537 3.625-15.902m19.494 7.194c-3.703 2.02-8.739 3.263-14.287 3.263-5.549 0-10.585-1.243-14.287-3.263m10.93 55.445h16.523m-16.522 6.246h16.522m12.035-39.875h30.24a8.194 8.194 0 0 1 8.194 8.194v32.924A8.195 8.195 0 0 1 82.643 90H23.355a8.194 8.194 0 0 1-8.194-8.195v-16.09h29.782m7.46-25.028v17.568m0-17.568V22.66v35.594m0-17.568h10.1V9.46A7.46 7.46 0 0 0 55.043 2h-10.1m7.46 56.255a7.46 7.46 0 0 1-7.46 7.46m7.46-7.46a7.46 7.46 0 0 1-7.46 7.46m0 0H6.275A4.275 4.275 0 0 1 2 61.44V48.093m47.236 16.261a8 8 0 0 1-.316.211M44.943 2a7.46 7.46 0 0 1 7.46 7.46v7.839M44.943 2H6.275A4.275 4.275 0 0 0 2 6.275V42.73m39.489-6.444c-3.703-2.02-8.739-3.263-14.287-3.263-5.549 0-10.585 1.243-14.287 3.263m19.494 7.194c2.269-4.366 3.625-9.892 3.625-15.902s-1.356-11.537-3.625-15.902m29.485 50.506 6.7-8.633-9.59-2.15a4.75 4.75 0 0 0-3.579.622l-3.022 1.912v3.486l.017.01zm15.909.575-8.633 6.7 4.752 9.475c.682 1.359 2.587 1.454 3.4.168l2.009-3.174a4.75 4.75 0 0 0 .621-3.578zm5.34-14.548a4.67 4.67 0 0 0-5.528-.803l-5.11 2.771a12.1 12.1 0 0 0-3.88 3.332L55.867 69.947l-4.924-.428a1.59 1.59 0 0 0-1.26.459l-2.295 2.296a1.586 1.586 0 0 0 .737 2.66l5.444 1.36a2.05 2.05 0 0 1 1.488 1.49l1.361 5.443a1.586 1.586 0 0 0 2.66.737l2.296-2.295c.332-.332.5-.792.46-1.26l-.429-4.924 16.437-12.757a12.1 12.1 0 0 0 3.332-3.88l2.771-5.111a4.67 4.67 0 0 0-.802-5.527"/></svg>