<svg width="33" height="33" viewBox="0 0 33 33" fill="none" xmlns="http://www.w3.org/2000/svg">
<path d="M32.2185 28.3862L24.6316 20.6948C25.9207 18.6144 26.6688 16.1556 26.6688 13.5168C26.6688 6.05123 20.6985 0 13.3341 0C5.96975 0 0 6.05123 0 13.5168C0 20.9826 5.96947 27.0333 13.3341 27.0333C16.1671 27.0333 18.791 26.1354 20.9502 24.6099L28.4469 32.2098C28.9678 32.7372 29.6507 33 30.3327 33C31.0156 33 31.6976 32.7372 32.2194 32.2098C33.2603 31.1534 33.2603 29.4423 32.2185 28.3862ZM13.3341 22.654C8.35648 22.654 4.3209 18.5634 4.3209 13.5173C4.3209 8.47122 8.35648 4.38036 13.3341 4.38036C18.3121 4.38036 22.3474 8.47122 22.3474 13.5173C22.3474 18.5634 18.3121 22.654 13.3341 22.654Z" fill="white"/>
</svg>
