<svg xmlns="http://www.w3.org/2000/svg" width="76" height="89" fill="none"><path stroke="#001489" stroke-miterlimit="22.926" stroke-width="2.5" d="M56.644 45.218c0 8.465-8.246 15.392-18.325 15.392s-18.325-6.927-18.325-15.392m36.65 0V32.391c-4.2 0-7.636-2.886-7.637-6.413 0 3.527-6.488 5.13-10.688 5.13s-10.688-1.603-10.688-5.13c0 3.527-3.437 6.413-7.637 6.413v12.827m36.65 0H59.7c3.36 0 6.108-2.309 6.108-5.13v-2.566c0-1.411-1.374-2.565-3.054-2.565m-42.76 10.261H16.94c-3.36 0-6.109-2.309-6.109-5.13v-2.566c0-1.411 1.374-2.565 3.054-2.565m15.271 23.577-1.47 4.642m0 0-14.768 6.413c-5.968 2.592-10.69 4.618-10.69 10.262V87h49.687m-24.23-23.824c0 4.932 4.76 8.931 10.634 8.931 5.873 0 10.634-3.999 10.634-8.931m0 0-1.471-4.642m1.471 4.642 14.767 6.413c5.969 2.592 10.69 4.619 10.69 10.262V87H54.97m7.784-52.043v-4.738c0-11.297-10.983-20.523-24.434-20.523-8.308 0-15.673 3.52-20.092 8.874m44.526 16.387h-6.109M16.6 20.84c-1.734 2.814-2.715 6.004-2.715 9.379v4.738m0 0h6.109m6.803-22.823c-.666-.884-1.035-1.86-1.035-2.885C25.762 5.245 31.384 2 38.319 2s12.558 3.245 12.558 7.249c0 1.025-.37 2-1.035 2.885M21.317 65.941v12.475h34.004V65.94M10.98 87l4.228-4.736v-13.67M65.658 87l-4.228-4.736v-13.67"/></svg>