<svg width="77" height="89" viewBox="0 0 77 89" fill="none" xmlns="http://www.w3.org/2000/svg">
<path d="M46.1978 49.6291V43.3524M46.1978 49.6291C46.988 49.6496 47.6204 50.19 47.6204 50.8536C47.6204 51.4197 47.8955 51.9328 48.3433 52.3056C48.7888 52.6768 49.4047 52.9059 50.0841 52.9059H61.772C69.1424 52.9059 75.1168 57.8828 75.1168 64.0226V71.8916M46.1978 49.6291C46.1814 49.6274 46.1648 49.6274 46.1484 49.6274H38.3037M30.4099 49.6291V43.3524M30.4099 49.6291C30.4263 49.6274 30.4427 49.6274 30.4591 49.6274H38.3037M30.4099 49.6291C30.022 49.6393 29.675 49.7727 29.4184 49.9865C29.1513 50.2089 28.9873 50.515 28.9873 50.8536C28.9873 51.9875 27.8827 52.9059 26.5236 52.9059H14.8355C7.46506 52.9059 1.49072 57.8828 1.49072 64.0226V85.2897C1.49072 86.2338 2.41048 87 3.54376 87H17.1269M38.3037 49.6274L38.3038 54.8334C38.3038 54.989 38.2566 55.1429 38.1663 55.2815L35.5815 59.2082M17.1269 87H59.481M17.1269 87L17.1268 69.1568M59.481 87H73.0637C74.1972 87 75.1168 86.2338 75.1168 85.2897V77.8775M59.481 87L59.481 69.1568M33.4422 68.6147V63.4839M33.4422 78.0211V72.8903M33.4422 86.8289V82.2967M48.8832 63.4839H27.7246M48.8832 59.2082H27.7246M56.9065 29.147H57.5573C59.0293 29.147 60.3618 28.6493 61.3246 27.8472C62.2896 27.0433 62.8849 25.9334 62.8849 24.7088C62.8849 22.2563 60.5014 20.2707 57.5573 20.2707H56.9065M56.9065 29.147V29.8944C56.9065 37.9617 49.0557 44.5 39.3735 44.5H37.2343C27.5522 44.5 19.7013 37.9617 19.7013 29.8944V29.147M56.9065 29.147V20.2707M56.9065 20.2707H19.7013M19.7013 20.2707H19.0505C17.5783 20.2707 16.2461 20.7667 15.2832 21.5705C14.3183 22.3726 13.7229 23.4826 13.7229 24.7088C13.7229 27.1596 16.1065 29.147 19.0505 29.147H19.7013M19.7013 20.2707V29.147M18.3216 20.3135V3.71026C18.3216 2.7662 19.2414 2 20.3746 2H56.233C57.3663 2 58.286 2.7662 58.286 3.71026V20.3135M58.2861 15.1399H18.3216M43.773 10.0091H18.3215M58.2861 10.0091H50.9588M48.8832 72.8903H27.7246M48.8832 68.6147H27.7246M48.8832 82.2967H27.7246M48.8832 78.0211H27.7246M29.1007 61.346C29.1007 62.7628 27.7218 63.9114 26.0211 63.9114C24.3204 63.9114 22.9415 62.7628 22.9415 61.346C22.9415 59.9293 24.3204 58.7806 26.0211 58.7806C27.7218 58.7806 29.1007 59.9293 29.1007 61.346ZM53.6661 61.346C53.6661 62.7628 52.2873 63.9114 50.5866 63.9114C48.8858 63.9114 47.507 62.7628 47.507 61.346C47.507 59.9293 48.8858 58.7806 50.5866 58.7806C52.2873 58.7806 53.6661 59.9293 53.6661 61.346ZM29.1007 70.7525C29.1007 72.1693 27.7218 73.3179 26.0211 73.3179C24.3204 73.3179 22.9415 72.1693 22.9415 70.7525C22.9415 69.3357 24.3204 68.1871 26.0211 68.1871C27.7218 68.1871 29.1007 69.3357 29.1007 70.7525ZM53.6661 70.7525C53.6661 72.1693 52.2873 73.3179 50.5866 73.3179C48.8858 73.3179 47.507 72.1693 47.507 70.7525C47.507 69.3357 48.8858 68.1871 50.5866 68.1871C52.2873 68.1871 53.6661 69.3357 53.6661 70.7525ZM29.1007 80.1589C29.1007 81.5757 27.7218 82.7243 26.0211 82.7243C24.3204 82.7243 22.9415 81.5757 22.9415 80.1589C22.9415 78.7421 24.3204 77.5935 26.0211 77.5935C27.7218 77.5935 29.1007 78.7421 29.1007 80.1589ZM53.6661 80.1589C53.6661 81.5757 52.2873 82.7243 50.5866 82.7243C48.8858 82.7243 47.507 81.5757 47.507 80.1589C47.507 78.7421 48.8858 77.5935 50.5866 77.5935C52.2873 77.5935 53.6661 78.7421 53.6661 80.1589Z" stroke="#001489" stroke-width="2.5" stroke-miterlimit="10" stroke-linecap="round" stroke-linejoin="round"/>
</svg>
