<svg width="106" height="65" viewBox="0 0 106 65" fill="none" xmlns="http://www.w3.org/2000/svg">
<path d="M57.8832 20.4288C72.1084 21.0246 86.2812 24.352 100.133 30.3334C103.93 31.9705 105.336 35.1041 103.738 38.9012L95.8172 57.6689C93.9101 62.1878 91.7112 63.3889 83.3941 63.3889H23.1221C14.805 63.3889 12.6061 62.1878 10.7048 57.6689L2.77863 38.9012C1.18056 35.1041 2.58605 31.9705 6.38299 30.3334C20.6374 24.1775 35.2244 20.8356 49.8579 20.3853M14.9041 27.0012L18.7768 10.9698C19.9492 6.1314 25.2975 2 31.7422 2H76.9378C82.8749 2 86.567 6.1314 87.7393 10.9698L91.6179 27.0012M57.4516 55.7171H96.6396M9.8765 55.7171H50.3244M31.9581 9.05196H74.5581M63.9139 34.2613H57.7899V29.1758C57.7899 27.9795 56.6058 27.0012 55.1653 27.0012H51.3509C49.9102 27.0012 48.7321 27.9795 48.7321 29.1758V34.2613H42.6024C41.1617 34.2613 39.9836 35.2396 39.9836 36.4407V39.6083C39.9836 40.8046 41.1617 41.7829 42.6024 41.7829H48.7321V46.8732C48.7321 48.0695 49.9102 49.0478 51.3509 49.0478H55.1653C56.6118 49.0478 57.7899 48.0695 57.7899 46.8732V41.7829H63.9139C65.3546 41.7829 66.5327 40.8046 66.5327 39.6083V36.4407C66.5327 35.2396 65.3546 34.2613 63.9139 34.2613Z" stroke="#001489" stroke-width="2.5" stroke-miterlimit="10" stroke-linecap="round" stroke-linejoin="round"/>
</svg>
