<svg width="94" height="89" viewBox="0 0 94 89" fill="none" xmlns="http://www.w3.org/2000/svg">
<path d="M20.1074 13.0092C14.6647 17.7582 11.3272 24.167 11.3272 31.2189M33.8642 5.91156C30.9482 6.66322 28.2106 7.74855 25.7173 9.11335M49.962 4.70975H43.523M67.9048 9.18877C65.3749 7.78858 62.5905 6.67707 59.6208 5.91156M8.10768 39.1877V32.5539C8.10768 31.8167 8.83218 31.2189 9.72583 31.2189H19.368C20.2617 31.2189 20.9862 31.8167 20.9862 32.5539V39.1877M72.4991 39.1877V32.5539C72.4991 31.8167 73.2236 31.2189 74.1172 31.2189H83.7594C84.6531 31.2189 85.3776 31.8167 85.3776 32.5539V39.1877M40.3033 39.1877V32.5539C40.3033 31.8167 41.0278 31.2189 41.9214 31.2189H51.5636C52.4573 31.2189 53.1818 31.8167 53.1818 32.5539V39.1877M17.7662 49.8126H75.7186M74.8492 9.96883V20.5939M87.1452 16.9932L80.18 7.03999C77.7864 3.61945 71.8021 3.61945 69.4085 7.03999L57.8741 23.5227C55.4805 26.9432 58.4726 31.2189 63.2599 31.2189H86.3286C91.1159 31.2189 94.1081 26.9432 91.7144 23.5227L90.8705 22.3168M9.71733 54.6062V60.7412C9.71733 61.5873 10.4153 62.3249 11.4101 62.53L18.0359 63.8965C18.5703 65.3006 19.2517 66.6511 20.0656 67.9353L16.5506 72.7685C16.0231 73.494 16.1615 74.4227 16.8867 75.0209L24.2368 81.085C24.9619 81.6833 26.0875 81.7977 26.9669 81.3623L32.8251 78.4623C34.3819 79.1338 36.0185 79.696 37.7204 80.1369L39.3769 85.6034C39.6256 86.4242 40.5195 87 41.545 87H51.9394C52.9649 87 53.859 86.4242 54.1075 85.6034L55.7641 80.1369C57.466 79.696 59.1028 79.1338 60.6594 78.4623L66.5175 81.3623C67.3969 81.7975 68.5225 81.6833 69.2476 81.085L76.5977 75.0209C77.3229 74.4227 77.4615 73.494 76.9338 72.7685L73.4189 67.9353C74.2327 66.6509 74.9141 65.3006 75.4485 63.8965L82.0743 62.53C83.0693 62.3248 83.7673 61.5873 83.7673 60.7412V54.6062M30.2639 61.8117C29.6584 60.5452 29.2612 59.1922 29.1072 57.7814M64.3778 57.7814C63.5644 65.2276 55.9794 71.0627 46.7425 71.0627C41.925 71.0627 37.5566 69.4754 34.3642 66.9002M59.6208 21.0267V5.42054C59.6208 3.53137 57.7647 2 55.4749 2H52.5532C51.1221 2 49.962 2.95707 49.962 4.13784V17.9377C49.962 19.4047 48.5205 20.5939 46.7425 20.5939C44.9643 20.5939 43.523 19.4045 43.523 17.9377V4.13784C43.523 2.95707 42.363 2 40.9318 2H38.0102C35.7204 2 33.8642 3.53137 33.8642 5.42054V39.1877H59.6208V30.2565M74.8492 25.5V27M74.3382 57.7814H19.1466C14.3112 57.7814 9.84668 55.6438 7.44764 52.1801L2.87946 45.5847C0.905166 42.7343 3.39998 39.1877 7.37903 39.1877H86.1058C90.0851 39.1877 92.5797 42.7343 90.6054 45.5847L86.0372 52.1801C83.6381 55.6439 79.1736 57.7814 74.3382 57.7814Z" stroke="#001489" stroke-width="2.5" stroke-miterlimit="10" stroke-linecap="round" stroke-linejoin="round"/>
</svg>
