<svg width="82" height="89" viewBox="0 0 82 89" fill="none" xmlns="http://www.w3.org/2000/svg">
<path d="M16.7716 75.6253V86.9999M65.3925 75.6253V86.9999M65.7969 55.8559H68.3904C75.1877 55.8631 80.6907 60.4855 80.6821 66.1146V85.2873C80.6821 86.2319 79.7575 86.9976 78.6169 86.9976H3.54725C2.40665 86.9976 1.48208 86.2319 1.48208 85.2873V78.7478M41.082 72.7255L34.2335 87H47.9305L41.082 72.7255ZM41.082 72.7255L34.7612 65.9643L41.0354 62.1156M41.082 72.7255L47.3885 65.9799L41.0354 62.1156M50.8431 52.1995L41.0354 62.1156M50.8431 52.1995L54.9928 55.8559M50.8431 52.1995L41.0353 62.1157M50.8431 52.1995L50.843 51.8521C47.9805 53.2665 44.6444 54.0787 41.082 54.0787M41.0354 62.1156L52.0605 68.8214L54.9928 55.8559M41.0354 62.1156L30.1036 68.8214M41.0354 62.1156L31.4087 52.1995M54.9928 55.8559L59.005 55.8559M41.082 54.0787C37.5559 54.0787 34.2517 53.2833 31.4087 51.8956V52.1995M41.082 54.0787C30.4431 54.0787 21.8187 46.8437 21.8187 37.9187L21.8187 26.7311M41.082 54.0787C51.721 54.0787 60.3453 46.8437 60.3453 37.9187L60.3454 26.7311M31.4087 52.1995L41.0353 62.1157M31.4087 52.1995L27.1711 55.8545L30.1036 68.8214M41.0353 62.1157L52.0603 68.8214V86.9975H30.1036V68.8214M41.0353 62.1157L30.1036 68.8214M30.1036 68.8214L27.1712 55.8549L13.8374 55.8513C7.04014 55.8441 1.49061 60.4017 1.48193 66.0306V73.1231M37.6214 2H34.2224C28.1022 2 23.1409 6.10873 23.1409 11.1771C18.761 11.1771 15.3106 14.2677 15.6534 17.8837L16.6147 28.0237C17.6847 27.3668 19.0091 26.9779 20.4433 26.9779M20.4433 26.9779L21.8187 26.7311M20.4433 26.9779L21.8187 26.9779V37.6402H20.4433C16.8881 37.6402 14.006 35.2534 14.006 32.3092C14.006 29.3648 16.8881 26.9779 20.4433 26.9779ZM21.8187 26.7311C21.8187 21.2362 25.0887 16.3828 30.0844 13.4632M30.0844 13.4632C33.9861 16.4223 42.4366 20.6495 59.1461 21.1076M30.0844 13.4632C33.9863 16.4223 42.4368 20.6495 59.1461 21.1076M59.1461 21.1076C59.921 22.8589 60.3454 24.7535 60.3454 26.7311M59.1461 21.1076C59.9212 22.859 60.3454 24.7535 60.3454 26.7311M60.3454 26.7311V26.9779H61.7208C63.1399 26.9779 64.4513 27.3591 65.5155 28.0035L66.4748 17.8837C66.8176 14.2677 63.3671 11.1771 58.9873 11.1771L60.6648 4.03692C60.9127 2.98101 59.9362 2 58.6377 2H44.4134M61.7206 26.9779H60.3452V37.6402H61.7206C65.276 37.6402 68.158 35.2534 68.158 32.3092C68.158 29.3648 65.276 26.9779 61.7206 26.9779Z" stroke="#001489" stroke-width="2.5" stroke-miterlimit="10" stroke-linecap="round" stroke-linejoin="round"/>
</svg>
